if (_typeface_js && _typeface_js.loadFace) _typeface_js.loadFace({"glyphs":{"0":{"ha":725,"x_min":38,"x_max":686,"o":"m 686 393 q 615 90 686 189 q 336 -25 532 -25 q 142 19 199 -25 q 38 328 38 99 q 254 822 38 631 q 328 899 296 858 l 349 882 l 349 882 q 599 696 508 832 q 686 393 686 565 m 582 393 q 396 751 582 622 q 354 771 376 765 q 142 328 142 589 q 167 158 142 211 q 304 79 203 79 q 533 153 476 79 q 582 393 582 215 z "},"1":{"ha":225,"x_min":47,"x_max":161,"o":"m 161 889 q 151 -3 151 617 l 47 -3 l 47 139 q 57 893 47 604 l 161 889 z "},"2":{"ha":640,"x_min":-4,"x_max":615,"o":"m 615 -4 q 446 -7 596 -4 l 446 -8 l 13 -8 q 74 143 35 90 q 187 255 96 174 q 357 439 278 336 q 463 654 463 576 q 425 757 463 728 q 317 785 393 785 q 89 656 153 785 l -4 703 q 317 889 90 889 q 567 654 567 889 q 492 449 567 561 q 331 258 439 367 q 168 97 249 178 l 244 96 q 429 97 311 96 q 615 101 560 101 l 615 -4 z "},"3":{"ha":606,"x_min":18,"x_max":572,"o":"m 572 271 q 457 60 572 131 q 213 1 361 1 q 131 6 182 1 q 49 11 68 10 l 53 115 q 133 110 72 114 q 213 106 182 106 q 381 136 315 106 q 468 271 468 179 q 404 410 468 378 q 247 438 375 424 l 69 454 q 421 744 421 633 q 392 803 421 779 q 326 826 363 826 q 199 801 249 826 q 100 711 150 775 l 18 778 q 155 894 85 858 q 326 931 225 931 q 465 876 406 931 q 525 744 525 822 q 488 619 525 685 q 401 521 453 560 q 572 271 572 475 z "},"4":{"ha":778,"x_min":28,"x_max":746,"o":"m 746 303 q 525 297 629 303 q 525 149 525 257 q 526 1 526 51 l 422 1 q 421 146 422 57 q 419 290 419 271 q 269 286 344 286 q 28 296 157 286 q 133 475 81 386 q 263 638 196 578 q 406 782 324 692 q 542 935 474 858 l 542 703 q 533 551 542 650 q 525 401 526 449 q 746 407 629 407 l 746 303 m 433 668 q 308 540 393 624 q 253 472 278 514 q 207 389 229 429 l 243 388 q 419 394 286 388 q 433 668 421 550 z "},"5":{"ha":640,"x_min":33,"x_max":618,"o":"m 565 790 q 468 776 542 788 q 371 768 408 768 q 258 771 333 768 q 147 774 183 774 q 138 540 136 672 q 260 551 201 551 q 508 475 408 551 q 618 246 618 390 q 540 50 618 128 q 343 -28 463 -28 q 201 1 289 -28 q 63 40 101 35 l 76 143 q 210 106 113 138 q 343 78 294 78 q 465 125 417 78 q 514 246 514 172 q 435 399 514 343 q 264 449 365 449 q 33 413 204 449 l 33 708 q 40 793 33 736 q 46 878 46 850 l 314 878 q 342 875 324 878 q 371 872 361 872 q 464 881 407 872 q 557 893 536 892 l 565 790 z "},"6":{"ha":746,"x_min":28,"x_max":725,"o":"m 657 782 l 563 782 q 283 690 410 785 q 135 442 149 590 q 357 525 228 525 q 611 439 506 525 q 725 203 725 347 q 660 38 725 100 q 493 -25 596 -25 q 171 94 308 -25 q 28 401 28 219 q 371 849 28 721 q 556 886 476 888 l 657 886 l 657 782 m 617 208 q 535 368 617 308 q 357 421 461 421 q 149 304 233 421 q 284 144 182 213 q 483 76 386 76 q 617 208 617 76 z "},"7":{"ha":665,"x_min":17,"x_max":635,"o":"m 635 858 q 596 662 635 750 q 515 485 557 574 q 411 233 464 358 q 332 -29 353 85 l 231 -10 q 311 260 251 107 q 418 521 364 390 q 522 753 458 597 q 17 775 218 753 l 28 878 q 635 858 219 857 z "},"8":{"ha":667,"x_min":42,"x_max":625,"o":"m 625 672 q 585 540 625 592 q 476 453 554 500 q 581 371 542 424 q 621 244 621 314 q 506 46 621 118 q 274 -17 408 -17 q 108 56 174 -17 q 42 229 42 128 q 165 442 42 371 q 60 663 60 526 q 144 846 60 778 q 342 910 224 910 q 536 849 456 910 q 625 672 625 783 m 521 672 q 472 776 521 738 q 364 828 442 800 l 365 813 q 228 781 271 804 q 164 664 164 746 q 199 554 164 610 q 290 493 239 493 q 321 497 297 493 q 351 497 340 500 q 413 539 371 513 q 490 588 479 576 q 521 672 521 617 m 354 386 q 213 354 268 386 q 144 236 144 315 q 181 134 144 179 q 274 89 218 89 q 429 121 360 89 q 517 240 517 163 q 462 339 517 292 q 354 386 407 386 z "},"9":{"ha":681,"x_min":47,"x_max":635,"o":"m 535 439 q 290 338 443 338 q 113 410 179 338 q 47 593 47 482 q 128 808 47 721 q 335 894 208 894 q 474 878 364 894 l 474 878 q 603 740 561 860 q 635 542 635 651 q 546 182 635 339 q 254 -8 440 -8 q 93 40 139 -8 q 47 200 47 88 l 151 200 q 167 115 151 132 q 254 97 183 97 q 453 213 374 97 q 535 439 517 307 m 460 776 l 460 775 q 403 781 432 779 l 403 782 q 335 790 356 790 q 202 733 254 790 q 150 594 150 675 q 188 485 150 528 q 290 442 225 442 q 449 500 389 442 q 508 656 508 558 q 460 776 508 751 z "}," ":{"ha":347,"x_min":0,"x_max":0,"o":""},"!":{"ha":221,"x_min":39,"x_max":156,"o":"m 156 942 q 149 615 156 833 q 143 289 143 396 l 39 289 q 45 615 39 396 q 51 942 51 833 l 156 942 m 156 17 l 51 17 l 51 125 l 156 125 l 156 17 z "},"\"":{"ha":404,"x_min":35,"x_max":350,"o":"m 350 1003 q 333 790 349 979 q 322 578 322 661 l 218 578 q 229 793 218 663 q 246 1010 246 999 l 350 1003 m 154 971 q 147 785 154 910 q 139 601 139 661 l 35 601 q 42 785 35 661 q 50 971 50 910 l 154 971 z "},"#":{"ha":976,"x_min":-6,"x_max":947,"o":"m 947 601 q 763 582 869 594 q 682 379 732 493 q 942 382 811 381 l 942 278 q 635 275 806 278 q 569 128 582 163 q 531 -29 538 44 l 426 -19 q 515 274 439 106 l 297 272 q 254 121 275 197 q 186 -24 229 43 l 99 32 q 190 272 143 103 q -6 285 78 274 l 8 388 q 196 374 117 374 l 221 374 q 281 529 240 425 q 69 500 210 518 l 60 604 q 321 636 147 617 q 381 767 351 701 q 413 904 413 839 l 517 904 q 492 772 517 844 q 442 647 467 710 q 685 676 510 656 q 717 881 718 771 l 821 881 q 797 690 821 781 q 938 706 875 700 l 947 601 m 643 567 q 399 539 486 547 l 332 376 l 564 379 q 643 567 607 472 z "},"$":{"ha":614,"x_min":42,"x_max":603,"o":"m 603 807 l 535 728 q 451 786 483 774 q 350 801 415 801 l 340 801 q 335 539 336 724 q 486 443 428 501 q 561 288 561 371 q 478 140 561 194 q 308 96 406 94 q 306 -49 304 81 l 201 -49 q 204 103 200 90 q 42 243 107 121 l 135 292 q 218 204 174 217 q 232 465 229 310 q 60 646 60 533 q 110 804 60 732 q 242 897 160 876 q 253 1054 251 1003 l 357 1054 q 347 904 357 978 q 485 885 436 904 q 603 807 535 865 m 235 782 q 163 665 163 738 q 232 578 163 604 q 235 782 232 701 m 335 425 q 322 200 332 294 q 410 218 374 200 q 456 290 456 243 q 335 425 456 374 z "},"%":{"ha":969,"x_min":35,"x_max":949,"o":"m 826 476 q 949 240 949 386 q 885 87 949 142 q 722 32 822 32 q 583 74 636 32 q 525 203 525 119 q 826 476 525 436 m 781 840 q 601 551 735 768 q 168 -37 449 300 l 88 29 q 513 604 363 361 l 692 896 l 781 840 m 211 396 q 78 463 125 396 q 35 610 35 521 q 67 747 35 686 q 175 824 107 824 q 238 818 181 824 l 236 811 q 352 769 310 811 q 394 654 394 728 q 342 492 394 578 q 211 396 282 396 m 793 367 q 681 318 732 360 q 625 211 625 271 q 722 136 625 136 q 844 231 844 136 q 793 367 844 293 m 292 639 q 263 701 292 690 q 190 707 251 707 l 190 718 l 176 719 q 139 606 139 685 q 211 500 139 499 q 265 563 238 531 q 292 639 292 596 z "},"&":{"ha":694,"x_min":14,"x_max":682,"o":"m 682 297 q 542 296 593 297 q 456 93 526 186 q 272 -14 374 -14 q 90 72 164 -14 q 19 264 19 153 q 124 469 19 396 q 14 650 14 526 q 77 803 14 743 q 235 863 140 863 q 474 782 343 863 l 418 693 q 239 758 317 758 q 118 653 118 758 q 161 564 118 590 q 260 532 179 553 l 396 496 q 281 443 339 469 q 169 371 207 407 q 121 264 121 324 q 161 147 121 197 q 268 93 204 93 q 385 161 339 93 q 433 293 419 214 q 290 293 379 292 l 290 397 q 486 399 356 397 q 682 401 617 401 l 682 297 z "},"'":{"ha":225,"x_min":36,"x_max":185,"o":"m 185 992 q 163 838 182 940 q 142 683 144 736 q 142 579 142 683 l 38 579 l 36 654 q 56 826 36 718 q 81 999 78 949 l 185 992 z "},"(":{"ha":422,"x_min":22,"x_max":397,"o":"m 397 867 q 349 849 381 861 q 178 596 240 799 q 128 281 128 436 q 301 -68 128 -39 q 354 -71 308 -68 l 347 -175 q 22 275 22 -154 q 92 676 22 504 q 361 964 179 896 l 397 867 z "},")":{"ha":413,"x_min":33,"x_max":375,"o":"m 375 357 q 125 -176 375 24 l 60 -94 q 224 111 175 -3 q 268 371 268 215 q 239 593 268 500 q 157 756 215 668 q 33 935 94 846 l 119 993 q 304 700 276 758 q 375 357 375 551 z "},"*":{"ha":622,"x_min":29,"x_max":596,"o":"m 596 938 l 593 886 q 371 594 589 801 q 554 438 457 499 l 497 349 q 297 525 400 411 q 131 360 211 444 l 56 431 q 228 604 111 492 q 131 706 179 654 q 61 803 83 757 q 29 942 35 860 l 133 949 q 164 829 138 875 q 244 736 182 801 l 244 753 q 250 869 244 797 q 260 988 258 958 l 364 983 q 354 860 363 953 q 349 736 349 783 l 349 719 q 429 804 403 774 q 489 892 488 871 l 493 944 l 596 938 z "},"+":{"ha":699,"x_min":19,"x_max":682,"o":"m 682 371 q 528 356 618 360 q 374 350 451 353 q 390 60 375 253 l 288 46 q 269 344 274 142 q 19 342 172 340 l 19 446 q 268 451 164 446 q 264 706 264 581 l 368 706 q 371 457 368 581 q 517 460 444 458 q 663 474 604 463 l 682 371 z "},",":{"ha":436,"x_min":38,"x_max":381,"o":"m 381 129 q 308 -81 344 25 q 154 -242 268 -164 q 104 -282 136 -254 l 38 -203 q 122 -139 69 -175 q 226 -1 188 -96 q 282 165 254 82 l 381 129 z "},"-":{"ha":554,"x_min":43,"x_max":482,"o":"m 482 297 q 383 300 449 297 q 283 303 317 303 q 79 269 168 303 l 43 367 q 274 407 146 407 q 378 404 308 407 q 482 401 447 401 l 482 297 z "},".":{"ha":325,"x_min":44,"x_max":261,"o":"m 261 14 q 61 -15 207 8 l 44 129 q 250 158 113 140 l 261 14 z "},"/":{"ha":682,"x_min":7,"x_max":683,"o":"m 683 851 q 621 744 664 807 q 551 640 564 661 q 415 365 510 569 q 265 81 326 176 q 64 -140 172 -68 l 7 -54 q 204 176 106 11 q 367 492 258 264 q 522 778 465 694 q 589 894 565 840 l 683 851 z "},":":{"ha":261,"x_min":28,"x_max":228,"o":"m 222 663 q 54 597 142 618 l 28 697 q 171 754 103 715 l 222 663 m 228 13 q 68 -21 149 6 l 35 78 q 219 117 126 108 l 228 13 z "},";":{"ha":365,"x_min":31,"x_max":342,"o":"m 342 642 q 164 611 247 610 l 164 715 q 310 740 232 715 l 342 642 m 288 71 q 275 -46 288 -3 q 228 -154 267 -74 q 111 -278 178 -257 l 61 -293 l 31 -193 q 94 -165 76 -179 q 133 -110 113 -151 q 179 1 174 -28 q 183 124 183 24 l 288 124 l 288 71 z "},"<":{"ha":576,"x_min":33,"x_max":557,"o":"m 557 192 l 496 108 q 365 203 396 182 q 228 285 292 254 q 110 363 147 324 q 33 481 76 397 q 439 808 331 625 l 528 756 q 179 439 431 589 q 303 360 213 403 q 436 288 406 311 q 557 192 476 254 z "},"=":{"ha":535,"x_min":22,"x_max":507,"o":"m 479 486 q 46 442 332 440 l 46 546 q 449 586 317 546 l 479 486 m 507 165 q 265 155 426 165 q 22 144 103 144 l 22 249 q 265 259 103 249 q 507 269 426 269 l 507 165 z "},">":{"ha":651,"x_min":31,"x_max":640,"o":"m 640 425 q 446 293 560 342 q 240 197 282 224 q 101 86 178 158 l 31 163 q 236 299 97 224 q 449 425 392 381 q 225 563 276 524 q 53 756 104 650 l 146 803 q 640 425 240 610 z "},"?":{"ha":671,"x_min":13,"x_max":646,"o":"m 383 854 q 222 835 274 854 q 103 728 149 808 l 13 779 q 168 926 72 886 q 383 958 246 958 q 572 890 499 958 q 646 708 646 822 q 560 498 646 582 q 350 414 475 414 q 276 421 314 414 l 278 376 q 267 182 279 286 l 163 194 q 172 586 172 268 q 257 536 243 543 q 356 519 299 519 q 488 574 433 519 q 542 707 542 629 q 497 815 542 776 q 383 854 453 854 m 303 -11 l 135 -11 l 135 94 l 303 94 l 303 -11 z "},"@":{"ha":918,"x_min":36,"x_max":876,"o":"m 876 575 q 735 299 876 299 q 574 396 629 299 q 358 288 500 288 q 208 429 208 288 q 284 622 208 531 q 460 714 360 714 q 572 679 503 714 q 649 607 649 640 q 629 585 649 596 q 735 403 646 403 q 765 479 756 403 q 772 575 772 528 q 661 739 772 672 q 460 797 564 797 q 210 663 294 797 q 140 374 140 551 q 219 180 140 257 q 414 103 297 103 q 579 138 458 103 q 732 197 707 174 q 767 236 735 200 l 843 167 q 639 43 775 89 q 403 1 518 1 q 129 121 229 1 q 36 410 36 233 q 139 742 36 600 q 436 900 254 900 q 728 821 601 900 q 876 575 876 731 m 538 582 q 471 610 510 610 q 363 556 414 610 q 313 444 313 501 q 371 389 313 389 q 483 453 438 389 q 525 581 522 511 l 538 582 z "},"A":{"ha":683,"x_min":15,"x_max":675,"o":"m 675 24 l 576 -11 q 468 328 514 161 q 329 329 426 328 q 190 329 236 329 q 154 163 176 286 q 113 -4 136 56 l 15 35 q 67 232 42 101 q 115 431 94 369 q 207 644 124 454 q 276 867 264 774 l 293 1004 q 443 711 342 932 q 507 578 467 668 q 589 300 535 493 q 675 24 640 121 m 440 432 q 407 547 429 471 q 372 622 397 575 q 339 692 347 669 q 285 563 321 640 q 228 433 238 458 l 440 432 z "},"B":{"ha":592,"x_min":33,"x_max":549,"o":"m 549 286 q 394 54 549 131 q 101 -4 275 -4 l 101 8 l 53 8 q 54 193 53 69 q 56 379 56 317 q 33 946 56 874 l 40 947 l 40 957 l 64 956 q 149 965 92 956 q 235 975 206 975 q 450 917 371 975 q 540 719 540 851 q 385 518 540 582 q 549 286 549 422 m 436 719 q 254 869 436 869 q 144 860 211 869 q 149 765 144 836 q 151 669 151 706 q 156 622 151 651 q 163 576 161 589 q 326 615 253 586 q 436 719 436 657 m 444 286 q 353 424 444 367 q 186 474 272 474 q 163 472 174 474 l 164 408 q 161 254 164 351 q 157 101 157 140 q 340 144 257 101 q 444 286 444 197 z "},"C":{"ha":636,"x_min":8,"x_max":667,"o":"m 667 794 l 567 764 q 522 842 556 822 q 436 857 497 857 l 378 857 q 260 837 292 857 q 189 735 229 817 q 113 446 113 575 q 185 196 113 292 q 414 89 265 89 q 503 118 457 89 q 578 178 519 129 l 643 97 q 539 19 574 39 q 414 -17 478 -17 q 111 122 222 -17 q 8 446 8 249 q 79 736 8 571 q 261 951 160 924 q 350 961 294 961 q 549 944 501 961 q 667 794 632 913 z "},"D":{"ha":651,"x_min":33,"x_max":615,"o":"m 615 422 q 415 142 615 267 q 81 -15 344 97 l 44 -14 q 40 68 40 6 q 38 517 40 233 q 33 965 33 843 l 51 965 q 135 956 86 967 q 218 936 176 946 q 539 775 458 882 q 615 422 615 674 m 511 422 q 481 665 511 589 q 367 782 450 742 q 133 850 307 810 q 143 125 138 608 q 365 238 272 183 q 465 310 439 282 q 511 422 511 357 z "},"E":{"ha":588,"x_min":-11,"x_max":603,"o":"m 603 885 q 107 861 438 881 q 104 700 106 814 q 103 539 103 594 q 161 538 132 538 q 482 585 328 538 l 513 485 q 103 435 328 428 q 100 268 103 407 q 99 103 99 167 l 164 101 q 494 144 367 100 l 529 46 q 322 4 438 14 q 111 0 261 0 q -3 -10 26 0 q -11 129 -11 38 q -4 539 -11 265 q 3 950 3 813 l 4 950 l 4 954 q 300 978 121 971 q 596 989 575 988 l 603 885 z "},"F":{"ha":568,"x_min":-21,"x_max":578,"o":"m 578 954 l 544 856 q 319 886 453 886 q 111 878 336 886 q 110 811 113 853 q 107 744 107 763 l 107 511 q 293 539 146 515 q 481 557 408 557 l 481 453 q 293 435 408 453 q 107 407 146 411 q 108 318 107 378 q 110 229 110 258 q 88 -14 110 83 l -14 10 q 6 226 6 97 q 4 315 6 256 q 3 406 3 375 l 0 406 l 0 510 l 3 510 q 6 677 3 565 q 8 844 8 789 q 6 878 8 863 l 3 878 l 3 888 q -21 957 3 907 l 3 969 l 3 982 l 28 982 l 72 1003 l 83 982 q 203 986 115 982 q 321 989 278 989 q 578 954 472 989 z "},"G":{"ha":726,"x_min":21,"x_max":713,"o":"m 708 506 q 710 399 708 474 q 713 292 713 329 q 704 193 713 201 q 563 19 663 61 q 335 -8 496 -8 q 92 140 178 -8 q 21 433 21 264 q 75 676 21 524 q 193 889 133 840 q 433 967 288 967 q 589 939 536 967 q 694 824 650 910 l 603 775 q 535 850 575 833 q 433 863 507 863 q 278 836 315 863 q 197 698 240 810 q 149 569 154 586 q 125 433 125 493 q 157 254 125 350 q 257 110 197 138 q 339 96 289 96 q 538 122 490 96 q 607 296 607 163 q 604 401 607 294 q 500 404 496 404 q 367 390 422 404 l 342 490 q 519 508 414 508 q 614 507 550 508 q 708 506 678 506 z "},"H":{"ha":650,"x_min":46,"x_max":594,"o":"m 594 958 q 585 664 594 860 q 575 369 575 468 q 576 306 575 349 q 578 243 578 264 q 572 117 578 201 q 567 -8 567 33 l 463 -8 l 461 71 q 468 150 461 99 q 475 226 475 201 q 471 333 475 253 q 469 440 467 400 l 454 440 q 181 450 363 446 l 154 450 q 151 236 154 388 q 150 25 150 101 l 46 25 l 46 444 q 52 690 46 526 q 58 938 58 854 l 163 938 q 158 744 163 872 q 153 554 153 610 l 181 554 q 461 544 274 549 l 478 544 q 490 958 490 728 l 594 958 z "},"I":{"ha":568,"x_min":24,"x_max":553,"o":"m 553 -3 l 111 -8 q 24 17 107 -8 l 50 117 q 190 97 122 97 l 211 97 l 211 176 q 222 526 210 297 q 236 876 236 765 q 57 854 144 868 l 40 957 q 524 990 238 990 l 524 886 q 340 883 404 886 q 326 531 340 771 q 315 178 314 300 l 315 99 l 551 101 l 553 -3 z "},"J":{"ha":626,"x_min":-11,"x_max":671,"o":"m 671 858 q 490 853 564 858 q 496 654 492 790 q 501 457 501 526 q 479 153 501 235 q 275 -22 433 -22 q 136 10 203 -22 q 31 104 63 46 q -11 364 -7 176 l 93 365 q 97 256 94 285 q 124 151 104 186 q 199 100 140 122 q 292 81 251 81 q 388 246 368 81 q 393 475 393 294 q 390 660 393 543 q 386 844 388 793 q 231 842 328 840 l 231 946 q 451 954 304 946 q 671 963 599 963 l 671 858 z "},"K":{"ha":586,"x_min":19,"x_max":567,"o":"m 567 26 l 479 -32 q 390 116 435 43 q 271 250 346 189 q 133 360 224 285 q 136 -17 136 167 l 32 -17 q 33 128 32 31 q 33 271 33 224 q 26 512 33 351 q 19 753 19 672 q 19 863 19 790 q 21 974 21 938 l 125 974 q 129 560 125 782 q 310 758 279 721 q 438 988 415 888 l 539 964 q 392 693 514 856 q 181 458 294 567 q 310 344 239 397 q 407 263 381 292 q 518 103 460 208 q 567 26 536 69 z "},"L":{"ha":574,"x_min":1,"x_max":614,"o":"m 614 0 q 511 -10 594 -1 q 407 -15 447 -15 q 361 -12 382 -15 l 361 -12 q 192 -10 304 -12 q 24 -8 79 -8 q 25 139 24 42 q 26 286 26 236 q 14 514 26 363 q 1 740 1 665 q 4 849 1 776 q 7 958 7 922 l 111 958 q 108 849 111 922 q 106 740 106 776 q 124 508 106 744 q 128 96 131 414 q 275 93 201 93 q 607 104 435 93 l 614 0 z "},"M":{"ha":971,"x_min":21,"x_max":949,"o":"m 949 22 l 850 -14 q 788 238 833 35 q 699 600 756 357 q 535 100 644 433 q 489 15 514 42 q 414 -46 479 4 q 336 294 394 100 q 232 628 285 461 q 185 357 213 533 q 140 86 157 171 q 125 -28 129 32 l 21 -21 q 54 174 24 11 q 142 700 79 350 q 192 968 172 842 q 350 611 278 818 q 464 236 388 503 q 719 1024 553 497 q 844 421 758 822 q 890 219 868 319 q 949 22 919 100 z "},"N":{"ha":746,"x_min":49,"x_max":685,"o":"m 685 910 l 682 153 q 663 42 682 104 q 624 -65 643 -11 q 529 97 593 13 q 415 246 471 172 q 283 440 360 319 q 157 636 178 606 q 154 401 156 524 q 153 -17 153 218 l 49 -17 q 53 495 49 154 q 57 1007 57 836 q 274 651 124 868 q 581 203 371 499 q 574 433 574 306 q 577 672 574 513 q 581 910 581 831 l 685 910 z "},"O":{"ha":753,"x_min":36,"x_max":718,"o":"m 718 440 q 644 121 718 239 q 365 -22 556 -22 q 132 89 229 -22 q 36 332 36 194 q 138 671 36 497 q 392 908 244 854 q 499 946 429 918 l 540 922 q 617 864 600 888 q 651 776 629 847 q 718 440 718 558 m 614 440 q 583 663 614 535 q 481 833 542 831 q 365 776 440 817 q 206 578 271 706 q 140 332 140 450 q 206 163 140 238 q 365 83 272 83 q 614 440 614 83 z "},"P":{"ha":611,"x_min":13,"x_max":593,"o":"m 593 697 q 489 524 593 588 q 281 453 421 483 q 136 408 153 424 q 139 160 139 304 l 138 -8 l 33 -8 q 26 445 33 143 q 18 899 18 747 l 13 911 l 18 915 l 18 933 l 56 933 q 232 965 132 965 q 474 903 372 965 q 593 697 593 829 m 489 697 q 394 826 489 782 q 225 861 321 861 q 124 847 165 861 q 132 524 124 738 q 343 574 238 549 q 489 697 489 618 z "},"Q":{"ha":729,"x_min":-28,"x_max":781,"o":"m 781 -193 q 638 -208 706 -208 q 276 -1 372 -208 q 50 176 139 21 q -28 464 -28 313 q 264 886 -28 772 q 397 919 346 919 q 554 808 488 919 q 664 394 664 625 q 593 147 664 257 q 386 1 515 28 q 643 -103 453 -103 q 763 -90 703 -103 l 781 -193 m 560 394 q 497 721 560 611 q 354 814 444 814 q 165 710 254 814 q 75 485 75 607 q 135 242 75 358 q 319 100 206 100 q 499 193 431 100 q 560 394 560 278 z "},"R":{"ha":600,"x_min":46,"x_max":579,"o":"m 579 89 l 525 0 q 158 304 314 129 q 164 8 164 163 l 60 8 q 53 301 60 106 q 46 594 46 496 q 49 774 46 654 q 51 954 51 894 l 156 954 l 156 932 l 188 932 q 394 888 308 935 q 499 717 499 829 q 404 518 499 610 q 211 400 325 440 q 579 89 354 226 m 396 708 q 318 808 396 778 q 181 828 261 831 l 156 828 q 150 574 150 618 l 151 489 q 306 574 267 546 q 396 708 396 638 z "},"S":{"ha":576,"x_min":-12,"x_max":618,"o":"m 618 922 l 574 828 q 456 867 513 858 q 331 874 418 874 q 183 832 263 874 q 92 724 92 785 q 194 599 92 669 q 344 499 269 549 q 536 167 536 324 q 432 28 536 81 q 251 -17 347 -17 q 10 88 128 -17 l 79 167 q 251 89 167 89 q 356 108 294 89 q 432 167 432 133 q 351 333 432 233 q 211 463 278 426 q 58 563 100 525 q -12 724 -12 631 q 108 910 -12 833 q 331 978 214 978 q 478 969 429 978 q 618 922 543 958 z "},"T":{"ha":715,"x_min":3,"x_max":707,"o":"m 707 869 q 386 865 496 869 q 396 640 388 801 q 403 414 403 497 q 401 205 403 344 q 399 -4 399 65 l 294 -4 q 297 204 294 65 q 299 413 299 343 q 292 636 299 496 q 282 860 283 800 q 18 835 146 851 l 3 938 q 707 974 258 974 l 707 869 z "},"U":{"ha":697,"x_min":44,"x_max":639,"o":"m 639 390 q 554 114 639 231 q 307 -17 461 -17 q 88 118 150 -17 q 44 389 44 211 q 49 674 44 483 q 53 958 53 864 l 157 958 q 153 667 157 861 q 149 375 149 472 q 169 189 149 249 q 307 89 204 89 q 475 182 411 89 q 533 374 529 263 q 533 465 533 361 l 533 933 l 638 933 l 639 390 z "},"V":{"ha":721,"x_min":24,"x_max":719,"o":"m 719 928 q 654 753 699 869 q 563 565 622 692 q 503 397 535 499 q 447 228 475 313 q 383 72 404 103 q 265 -44 368 50 q 71 815 211 460 q 24 975 42 889 l 125 999 q 164 874 136 950 q 207 751 199 776 q 332 206 244 632 q 465 604 410 471 q 557 792 499 665 q 624 971 578 851 l 719 928 z "},"W":{"ha":992,"x_min":24,"x_max":968,"o":"m 968 878 q 899 767 921 831 q 868 638 889 738 q 804 272 825 418 q 767 119 796 207 q 715 -31 742 44 q 639 160 694 38 q 560 350 581 288 q 481 596 535 432 q 421 403 456 532 q 363 213 386 275 q 296 89 343 161 q 222 -31 235 -10 q 135 489 219 192 q 67 701 101 596 q 24 919 28 828 l 126 924 q 169 718 131 838 q 236 517 203 617 q 279 333 250 456 q 367 604 304 444 q 469 868 418 736 q 590 572 525 756 q 700 271 681 319 q 751 610 719 447 q 857 915 801 858 l 894 951 l 968 878 z "},"X":{"ha":633,"x_min":22,"x_max":613,"o":"m 613 914 q 554 797 593 865 q 490 685 522 740 q 363 411 447 593 q 586 33 472 169 l 506 -33 q 303 293 396 99 q 247 175 272 242 q 203 79 221 108 q 108 -29 172 28 l 39 49 q 119 142 90 94 q 160 231 136 169 q 206 335 183 293 q 247 410 219 360 q 114 660 181 535 q 22 931 49 792 l 124 950 q 194 731 146 839 q 303 526 225 664 q 451 822 392 721 q 515 953 488 883 l 613 914 z "},"Y":{"ha":671,"x_min":31,"x_max":643,"o":"m 643 963 q 547 703 622 847 q 417 456 482 579 q 358 344 382 382 l 358 21 l 254 21 l 254 378 l 261 389 q 135 572 224 433 q 49 754 71 672 q 31 954 31 826 l 135 954 q 181 704 135 818 q 315 486 222 601 q 444 728 379 607 q 540 982 521 872 l 643 963 z "},"Z":{"ha":654,"x_min":19,"x_max":646,"o":"m 646 938 q 581 775 617 832 q 478 638 575 765 q 385 506 472 631 q 283 379 329 426 q 182 257 211 306 q 131 107 144 194 q 279 101 197 101 q 461 106 340 101 q 642 110 582 110 l 642 6 q 469 3 585 6 q 297 1 354 1 q 19 13 138 1 q 65 253 25 161 q 210 454 106 346 q 307 575 253 497 q 396 701 385 686 q 496 832 431 743 q 286 815 408 815 q 153 819 242 815 q 21 822 64 822 l 21 926 q 154 924 65 926 q 288 922 243 922 q 415 930 331 922 q 542 938 499 938 l 646 938 z "},"[":{"ha":285,"x_min":6,"x_max":294,"o":"m 294 -158 q 169 -160 256 -158 q 46 -162 90 -162 l 14 -162 q 10 266 14 -19 q 6 694 6 551 q 8 822 6 738 q 10 950 10 907 q 111 954 40 950 q 213 958 176 958 l 238 958 l 238 854 l 225 854 q 167 850 204 854 q 113 846 129 846 q 110 540 110 703 q 117 -58 110 335 l 146 -58 q 221 -57 174 -60 q 294 -54 274 -54 l 294 -158 z "},"\\":{"ha":544,"x_min":1,"x_max":582,"o":"m 582 -154 l 486 -196 q 338 114 461 -140 q 199 428 244 301 q 99 656 169 507 q 1 879 29 806 l 99 915 q 198 689 128 839 q 297 461 268 539 q 435 151 343 338 q 582 -154 556 -97 z "},"]":{"ha":335,"x_min":39,"x_max":278,"o":"m 278 -171 q 170 -169 243 -171 q 63 -167 97 -167 l 63 -62 q 174 -64 133 -62 q 175 122 174 -3 q 175 308 175 247 q 153 865 175 644 q 46 853 114 857 l 39 957 q 244 986 107 967 q 278 36 278 633 l 278 -171 z "},"^":{"ha":578,"x_min":46,"x_max":538,"o":"m 538 617 l 453 556 q 286 832 333 719 q 200 701 215 729 q 147 554 164 636 l 46 575 q 144 804 67 676 q 275 1018 210 911 q 360 913 336 957 q 415 793 388 853 q 538 617 432 758 z "},"_":{"ha":800,"x_min":22,"x_max":739,"o":"m 739 -90 q 385 -110 603 -112 q 29 -111 97 -107 l 22 -7 q 372 -6 100 -1 q 722 13 590 -10 l 739 -90 z "},"`":{"ha":340,"x_min":-83,"x_max":365,"o":"m 365 1126 l 315 1035 q 207 1088 261 1061 q 104 1149 143 1118 q 10 1208 75 1172 q -83 1267 -54 1244 l -18 1349 q 168 1229 54 1290 q 365 1126 267 1178 z "},"a":{"ha":592,"x_min":33,"x_max":564,"o":"m 564 18 l 460 7 l 449 100 q 239 -14 365 -14 q 90 49 147 -14 q 33 204 33 113 q 99 367 33 306 q 265 428 164 428 q 435 389 367 428 l 435 403 q 374 549 439 476 q 235 621 310 621 q 168 609 179 621 q 149 540 157 597 l 46 560 q 101 690 61 654 q 235 725 140 725 q 517 504 424 725 q 539 444 539 453 q 537 355 539 414 q 535 267 535 296 q 546 142 535 217 q 564 18 561 33 m 411 282 q 265 324 356 324 q 167 293 194 324 q 140 190 140 263 q 228 92 140 92 q 355 151 300 92 q 411 282 410 210 z "},"b":{"ha":624,"x_min":29,"x_max":604,"o":"m 604 300 q 474 78 604 169 q 219 -6 356 -6 q 172 22 197 -6 q 133 65 153 44 l 133 14 l 29 14 q 44 304 29 110 q 58 597 58 499 q 35 1038 58 833 l 138 1050 q 164 661 163 843 q 297 678 218 678 q 514 546 415 678 q 604 300 604 422 m 500 300 q 432 485 500 399 q 264 575 360 575 q 163 544 211 575 q 139 181 160 403 q 171 132 147 175 q 219 100 189 100 q 400 153 311 100 q 500 300 500 214 z "},"c":{"ha":582,"x_min":15,"x_max":588,"o":"m 588 642 l 535 553 q 415 604 469 592 q 285 615 368 615 q 161 494 213 615 q 119 311 119 396 q 178 158 119 225 q 324 92 238 92 q 421 111 383 92 q 497 178 451 128 l 574 107 q 463 17 513 42 q 324 -14 404 -14 q 104 86 194 -14 q 15 311 15 182 q 82 571 15 446 q 285 719 161 719 q 588 642 457 719 z "},"d":{"ha":719,"x_min":46,"x_max":656,"o":"m 654 -8 l 550 -8 l 550 83 q 294 -17 439 -17 q 110 72 179 -17 q 46 274 46 154 q 93 463 46 354 q 194 632 136 561 q 299 689 240 689 l 421 689 q 540 664 494 689 q 535 850 540 704 q 531 1038 531 965 l 635 1038 q 640 776 635 950 q 646 517 646 603 q 651 363 646 467 q 656 206 656 258 l 654 -8 m 547 367 q 526 549 547 463 q 328 588 472 593 l 297 588 q 235 511 279 575 q 179 424 193 453 q 150 274 150 364 q 181 147 150 196 q 290 90 217 90 q 474 178 397 90 q 547 367 547 261 z "},"e":{"ha":640,"x_min":32,"x_max":604,"o":"m 604 393 q 581 313 604 335 q 500 290 557 290 q 317 294 439 290 q 136 297 196 297 q 218 139 135 194 q 399 92 290 92 q 472 110 429 92 q 543 142 508 125 l 583 46 q 493 7 539 26 q 399 -14 442 -14 q 139 67 238 -14 q 32 311 32 154 q 133 589 32 468 q 393 719 240 719 q 564 608 511 719 q 604 393 604 525 m 500 394 q 483 532 492 464 q 393 615 464 615 q 232 552 304 615 q 144 401 160 489 l 157 401 q 299 397 206 401 q 439 393 393 393 q 500 394 472 393 z "},"f":{"ha":556,"x_min":-25,"x_max":594,"o":"m 594 926 q 522 928 571 926 q 449 929 474 929 q 292 858 332 929 q 253 675 264 813 q 490 683 411 682 l 490 579 q 249 569 415 579 l 249 525 q 253 263 247 435 q 258 1 258 83 l 154 1 q 149 285 154 85 q 146 568 144 467 q -18 567 14 569 l -25 671 q 150 672 26 675 q 410 1036 175 1036 q 503 1033 440 1036 q 594 1031 565 1031 l 594 926 z "},"g":{"ha":732,"x_min":50,"x_max":674,"o":"m 674 118 q 631 -203 674 -94 q 388 -375 565 -375 q 232 -346 329 -375 q 99 -276 122 -314 q 72 -189 81 -249 q 64 -93 68 -140 l 167 -79 q 185 -217 168 -125 q 285 -251 235 -233 q 388 -271 342 -271 q 544 -142 503 -271 q 569 82 569 -65 l 569 110 q 347 -3 464 -3 q 139 90 228 -3 q 50 303 50 183 q 332 674 50 589 q 385 692 357 683 q 436 700 414 701 l 461 700 q 565 604 529 651 l 565 672 l 669 672 q 672 394 669 579 q 674 118 674 210 m 561 365 q 511 493 561 431 q 415 596 463 544 l 413 596 q 356 578 401 596 q 213 478 265 544 q 154 317 154 407 q 208 166 154 229 q 347 103 263 103 q 510 185 450 103 q 561 365 561 258 z "},"h":{"ha":624,"x_min":39,"x_max":575,"o":"m 572 -14 l 468 -14 q 472 125 468 28 q 476 264 476 217 q 467 458 476 399 q 371 596 444 596 q 258 585 296 596 q 168 521 201 568 q 169 378 169 456 q 168 185 169 314 q 167 -10 167 56 l 63 -10 q 63 158 63 46 q 64 326 64 269 q 63 501 64 424 l 60 503 l 61 507 q 49 756 60 579 q 39 1006 39 915 l 143 1006 q 161 658 143 904 q 383 700 246 700 q 575 190 575 700 q 574 89 575 156 q 572 -14 572 18 z "},"i":{"ha":242,"x_min":40,"x_max":197,"o":"m 190 875 l 139 864 q 79 839 126 858 l 40 936 q 169 976 114 965 l 190 875 m 194 8 l 90 8 q 92 104 90 39 q 92 201 92 169 q 76 443 92 338 q 69 579 69 489 q 61 714 68 669 l 164 731 q 172 595 171 685 q 178 463 172 506 q 196 192 197 338 l 194 8 z "},"j":{"ha":628,"x_min":33,"x_max":604,"o":"m 604 860 q 529 826 558 846 q 464 779 529 826 l 401 863 q 482 919 469 913 q 572 960 517 943 l 604 860 m 594 250 q 532 -140 594 28 q 263 -378 444 -378 q 65 -312 108 -378 q 33 -100 33 -264 l 138 -100 q 136 -146 138 -114 q 136 -193 136 -178 q 172 -265 136 -250 q 263 -274 192 -274 q 456 -58 397 -274 q 492 269 492 78 q 482 392 492 310 q 474 517 472 474 l 474 643 l 578 643 l 578 522 q 586 386 578 476 q 594 250 594 296 z "},"k":{"ha":585,"x_min":-3,"x_max":626,"o":"m 626 50 l 539 -8 q 364 167 478 83 q 154 303 260 235 l 156 251 q 126 -44 158 111 l 25 -24 q 50 251 50 101 q 24 635 50 379 q -3 1018 -3 890 l 101 1018 q 140 496 101 846 q 307 610 146 500 q 457 744 408 678 l 539 681 q 368 539 488 614 q 188 408 232 453 q 426 253 307 331 q 626 50 551 161 z "},"l":{"ha":231,"x_min":53,"x_max":196,"o":"m 196 1028 q 174 888 193 985 q 157 749 157 796 l 157 7 l 53 7 l 53 757 q 69 896 53 807 q 92 1035 89 994 l 196 1028 z "},"m":{"ha":950,"x_min":42,"x_max":897,"o":"m 892 -18 l 788 -14 q 794 257 794 129 q 724 582 794 482 q 685 621 696 621 q 600 542 654 621 q 538 432 561 485 q 529 254 529 322 q 522 126 529 213 q 515 -4 515 39 l 411 -4 q 422 172 411 54 q 432 349 432 289 q 367 600 432 531 q 325 632 338 632 q 234 594 283 632 q 176 514 185 556 q 172 486 174 500 q 157 464 168 464 q 149 467 153 464 q 140 297 140 397 q 143 153 140 249 q 146 13 146 58 l 42 13 l 42 453 q 46 500 42 471 q 51 546 50 535 q 56 719 53 604 l 160 715 l 158 665 q 317 736 240 736 q 497 586 431 736 q 685 725 589 725 q 897 171 897 725 q 892 -18 897 97 z "},"n":{"ha":694,"x_min":46,"x_max":643,"o":"m 642 -14 l 538 -14 q 539 63 538 8 q 540 139 540 113 q 375 624 540 624 q 150 475 274 624 q 149 365 150 439 q 147 253 147 290 q 169 11 147 107 l 68 -12 q 46 236 46 79 l 46 710 l 150 710 l 150 628 q 375 728 256 728 q 607 506 544 728 q 643 146 643 378 q 643 67 643 119 q 642 -14 642 11 z "},"o":{"ha":654,"x_min":46,"x_max":619,"o":"m 619 322 q 569 93 619 182 q 379 -18 508 -18 q 343 -17 367 -18 q 306 -17 318 -17 q 114 118 192 -17 q 46 357 46 235 q 96 572 46 499 q 282 686 149 651 q 413 711 378 711 q 482 674 460 711 q 619 322 619 581 m 396 606 l 390 606 q 307 585 381 606 q 178 508 210 560 q 150 357 150 464 q 192 193 150 283 q 306 89 242 89 q 342 88 318 89 q 379 86 367 86 q 490 164 456 86 q 517 310 517 222 q 497 460 517 381 q 429 588 472 564 l 396 606 z "},"p":{"ha":706,"x_min":43,"x_max":682,"o":"m 682 286 q 550 60 682 139 q 283 -6 440 -6 q 165 31 225 -6 l 163 -401 l 58 -401 q 63 -1 58 -267 q 68 399 68 265 q 43 671 68 572 l 144 696 l 161 631 q 315 679 251 679 q 476 632 376 679 q 682 286 682 536 m 578 286 q 528 463 578 397 q 372 564 478 528 q 317 574 343 574 q 172 511 247 574 l 172 485 q 169 321 172 425 q 167 157 167 204 q 283 100 233 100 q 474 138 394 100 q 578 286 578 188 z "},"q":{"ha":700,"x_min":26,"x_max":642,"o":"m 626 -407 l 522 -394 q 536 -108 536 -285 l 536 31 q 389 -6 468 -6 q 128 101 231 -6 q 26 367 26 208 q 135 622 26 535 q 404 700 232 700 q 521 690 483 700 l 521 718 l 625 718 q 633 442 625 625 q 640 167 640 258 q 642 -121 640 -272 q 626 -407 640 -287 m 536 150 l 536 163 q 524 542 536 317 l 500 539 l 493 590 q 374 596 478 596 q 197 535 264 596 q 129 365 129 475 q 203 177 129 254 q 389 100 278 100 q 536 150 447 100 z "},"r":{"ha":536,"x_min":10,"x_max":550,"o":"m 550 663 l 482 583 q 385 638 425 638 q 226 604 299 638 q 121 490 135 564 q 119 418 117 465 q 122 344 121 381 l 125 -12 l 21 -12 q 17 488 21 8 l 10 490 l 17 508 l 17 710 l 121 710 l 121 664 q 385 742 224 742 q 550 663 461 742 z "},"s":{"ha":650,"x_min":38,"x_max":611,"o":"m 611 197 q 542 50 611 114 q 390 -14 474 -14 q 38 153 214 -14 l 108 229 q 390 92 256 92 q 469 124 431 92 q 507 197 507 157 q 469 307 507 275 q 379 338 443 332 q 265 350 322 343 q 74 536 74 386 q 300 725 74 725 q 467 706 411 725 q 606 610 539 682 l 529 539 q 426 610 478 596 q 300 621 392 621 q 215 607 240 621 q 178 536 178 589 q 290 451 178 471 q 499 403 464 421 q 611 197 611 349 z "},"t":{"ha":601,"x_min":14,"x_max":596,"o":"m 596 21 q 447 -17 508 -17 q 215 85 282 -17 q 160 339 160 165 q 163 453 160 376 q 167 568 167 531 q 14 588 88 574 l 32 690 q 167 671 115 674 l 167 869 l 271 869 l 271 669 q 564 700 365 669 l 579 597 q 271 565 368 564 q 267 428 271 519 q 263 292 263 336 q 303 142 263 189 q 447 89 346 89 q 556 117 489 89 l 596 21 z "},"u":{"ha":718,"x_min":47,"x_max":661,"o":"m 656 718 q 658 594 656 678 q 661 469 661 511 q 626 210 661 308 q 467 8 582 83 q 393 -22 421 -22 q 93 258 172 -22 q 47 718 47 419 l 151 718 q 181 338 151 472 q 393 83 236 83 q 521 222 486 138 q 551 411 544 283 q 551 718 551 411 l 656 718 z "},"v":{"ha":703,"x_min":32,"x_max":658,"o":"m 658 707 q 564 442 629 617 q 390 82 504 294 q 346 18 365 36 q 281 -24 335 8 q 207 226 215 204 q 117 471 163 368 q 32 738 49 619 l 136 751 q 210 515 149 649 q 326 190 268 390 q 468 481 376 286 q 561 743 497 569 l 658 707 z "},"w":{"ha":947,"x_min":6,"x_max":917,"o":"m 917 725 q 890 561 914 631 q 828 410 860 486 q 768 260 769 261 q 693 117 731 174 q 654 65 674 92 q 629 10 635 39 q 557 93 593 51 q 503 193 528 126 q 433 399 479 260 q 365 186 411 306 q 279 -21 322 82 q 240 88 263 61 q 195 162 208 128 q 156 286 182 196 q 113 410 133 365 q 6 726 44 557 l 107 750 q 206 457 143 590 q 281 235 218 431 q 422 776 382 547 q 615 189 488 581 q 739 451 676 292 q 813 729 811 636 l 917 725 z "},"x":{"ha":618,"x_min":7,"x_max":594,"o":"m 594 53 l 504 1 q 289 290 449 97 q 94 -19 225 188 l 7 36 l 221 375 q 117 525 183 424 q 14 675 51 626 l 96 739 q 189 604 132 692 q 281 468 251 507 q 468 744 346 558 l 558 692 q 456 535 521 629 q 349 382 365 407 q 478 222 474 226 q 594 53 550 129 z "},"y":{"ha":704,"x_min":25,"x_max":663,"o":"m 663 710 q 611 542 654 656 q 417 31 549 371 l 422 24 l 413 18 q 329 -189 340 -162 q 238 -393 281 -307 l 144 -347 q 297 28 210 -215 q 144 393 222 154 q 85 540 128 443 q 25 689 42 638 l 124 721 q 184 571 140 668 q 244 424 228 474 q 289 289 281 314 q 343 158 315 214 q 464 449 346 165 q 560 726 549 651 l 663 710 z "},"z":{"ha":685,"x_min":11,"x_max":663,"o":"m 663 29 q 306 18 399 29 q 214 4 301 17 q 121 -4 160 -4 l 11 -4 q 142 178 83 90 q 317 394 190 250 q 486 614 435 531 q 403 613 443 613 q 352 617 386 613 q 301 622 318 622 l 50 622 l 50 726 q 217 724 106 726 q 385 721 329 721 q 642 735 522 721 q 529 500 607 611 q 378 313 490 442 q 224 113 275 194 q 583 133 354 133 l 663 133 l 663 29 z "},"{":{"ha":471,"x_min":-11,"x_max":504,"o":"m 504 -175 l 439 -174 q 317 -160 349 -174 q 267 -58 267 -136 q 272 27 267 -29 q 276 113 276 83 q 146 343 276 296 q -11 422 111 356 q 203 488 119 453 q 254 504 233 500 q 240 631 251 540 q 229 757 229 710 q 275 914 229 871 q 432 963 317 954 l 440 858 q 344 811 363 854 q 335 697 335 789 q 347 586 335 660 q 358 475 358 513 q 279 401 358 429 q 381 46 381 326 q 375 -3 381 31 q 369 -54 369 -36 l 371 -69 q 504 -71 376 -71 l 504 -175 z "},"|":{"ha":275,"x_min":47,"x_max":210,"o":"m 206 971 q 208 819 206 919 q 210 668 210 718 q 200 465 210 592 q 185 264 188 319 q 185 154 183 221 q 186 46 186 63 q 147 -218 186 -99 l 47 -186 q 79 8 75 -103 q 81 207 81 14 q 89 364 81 269 q 101 522 101 510 q 106 746 108 611 q 101 971 101 968 l 206 971 z "},"}":{"ha":583,"x_min":25,"x_max":556,"o":"m 556 426 q 450 332 522 392 q 374 288 424 318 q 349 210 349 268 q 355 136 349 185 q 361 64 361 88 q 264 -108 361 -43 q 79 -207 172 -158 l 25 -118 q 167 -47 96 -83 q 257 64 257 6 q 252 142 257 90 q 247 219 247 193 q 322 378 247 333 q 206 458 206 381 q 213 533 206 483 q 219 607 219 582 q 149 799 219 711 q 108 845 117 840 q 47 857 99 850 l 61 960 q 157 938 133 951 q 228 868 181 925 q 328 636 328 749 q 310 482 328 588 l 321 482 q 440 461 371 482 q 556 426 497 443 z "},"~":{"ha":768,"x_min":31,"x_max":711,"o":"m 711 464 q 643 315 672 358 q 514 232 589 232 q 401 275 451 232 q 329 357 389 286 q 263 401 293 401 q 176 342 215 401 q 122 242 171 333 l 31 292 q 117 436 94 408 q 263 506 175 506 q 374 461 324 506 q 444 379 381 454 q 514 336 482 336 q 613 500 553 336 l 711 464 z "},"¡":{"ha":258,"x_min":63,"x_max":222,"o":"m 222 746 q 69 739 136 739 l 69 843 q 214 849 132 843 l 222 746 m 186 599 q 176 229 186 476 q 167 -140 167 -18 l 63 -140 q 72 229 63 -18 q 82 599 82 476 l 186 599 z "},"£":{"ha":657,"x_min":24,"x_max":647,"o":"m 647 -4 q 100 -12 250 -4 l 83 89 q 188 174 154 107 q 219 310 213 224 q 222 450 221 379 l 24 450 l 24 554 l 232 554 q 333 821 254 697 q 557 974 431 974 l 608 974 l 608 869 l 557 869 q 407 743 479 869 q 333 547 349 640 q 447 547 376 546 q 560 550 532 550 l 560 446 q 443 443 533 446 q 325 443 369 442 l 325 365 q 261 99 325 188 q 471 101 357 101 l 647 101 l 647 -4 z "},"¥":{"ha":586,"x_min":4,"x_max":628,"o":"m 628 963 q 510 711 603 846 q 342 486 425 599 l 353 463 l 329 451 l 329 401 q 428 394 363 401 q 524 386 493 386 l 524 282 q 329 296 442 282 l 329 219 q 463 226 375 226 l 463 122 q 329 115 374 122 l 329 -14 l 225 -14 l 225 100 q 74 93 168 92 l 74 197 q 225 204 168 197 l 225 297 l 53 297 l 53 401 l 225 401 l 225 485 q 86 697 156 590 q 4 939 13 817 l 108 946 q 169 753 115 843 q 286 588 228 669 q 426 775 357 681 q 526 985 506 890 l 628 963 z "},"¦":{"ha":228,"x_min":49,"x_max":176,"o":"m 165 413 l 61 413 l 61 539 q 65 622 61 571 q 72 706 71 685 q 72 800 74 742 q 69 894 69 875 l 69 954 l 174 954 q 175 847 174 918 q 176 742 176 776 q 172 668 176 715 q 165 594 167 617 q 165 413 165 594 m 169 -244 l 65 -251 q 49 110 49 -3 q 53 211 49 143 q 57 313 57 279 l 161 313 q 157 211 161 279 q 153 110 153 143 q 169 -244 153 0 z "},"§":{"ha":658,"x_min":61,"x_max":632,"o":"m 632 815 l 528 811 q 525 863 528 829 q 440 890 522 881 q 338 896 383 896 q 253 863 285 896 q 221 776 221 831 q 297 678 221 732 q 411 604 354 640 q 502 526 443 582 q 596 447 561 469 l 606 447 l 606 432 q 589 269 606 322 q 481 158 561 182 q 551 94 517 126 q 585 6 585 56 q 499 -147 585 -94 q 321 -192 428 -192 q 153 -156 210 -192 q 61 -12 88 -114 l 163 14 q 219 -74 179 -56 q 325 -86 246 -86 q 425 -68 382 -86 q 481 6 481 -44 q 374 147 481 72 q 175 286 274 217 q 67 492 67 379 q 172 679 67 589 q 138 724 156 701 q 117 776 117 751 q 179 938 117 875 q 339 1000 242 1000 q 519 983 460 1000 q 629 868 626 954 l 632 815 m 501 385 q 406 479 461 414 q 331 547 378 513 q 247 606 289 576 q 171 492 171 544 q 255 333 171 418 q 413 247 339 247 q 501 385 500 247 z "},"¨":{"ha":463,"x_min":-40,"x_max":496,"o":"m 496 1069 q 294 1040 442 1064 l 279 1185 q 485 1214 347 1196 l 496 1069 m 176 1069 q -25 1040 122 1064 l -40 1185 q 165 1214 28 1196 l 176 1069 z "},"©":{"ha":892,"x_min":33,"x_max":860,"o":"m 490 24 q 269 69 381 24 q 96 207 146 122 q 33 511 33 317 q 289 869 33 821 q 368 889 315 874 l 482 889 l 482 886 q 763 742 657 886 q 860 432 860 613 q 807 207 860 303 q 636 58 749 97 q 490 24 532 24 m 756 429 q 692 663 756 563 q 493 782 618 782 l 442 782 l 442 785 q 208 722 278 785 q 135 496 135 657 q 188 257 135 347 q 324 160 222 199 q 490 128 411 128 q 572 147 508 128 q 651 178 636 167 q 756 429 756 249 m 593 222 q 481 208 536 208 q 299 264 368 208 q 225 435 225 324 q 297 615 225 547 q 481 681 368 682 l 586 681 l 586 576 l 489 576 q 329 436 329 578 q 372 340 329 375 q 475 310 411 310 q 568 322 517 310 l 593 222 z "},"ª":{"ha":486,"x_min":44,"x_max":440,"o":"m 433 421 l 329 421 l 329 453 q 221 424 264 424 q 44 557 44 424 q 101 702 44 632 q 231 772 158 772 q 332 735 272 772 q 249 858 322 858 q 181 851 224 858 q 114 840 132 842 l 104 944 q 175 957 124 946 q 246 967 219 967 q 440 636 440 967 q 437 528 440 600 q 433 421 433 456 m 333 622 q 281 647 325 625 q 231 668 242 668 q 175 626 203 668 q 147 556 147 585 q 221 528 147 528 q 332 568 242 528 l 333 622 z "},"«":{"ha":599,"x_min":36,"x_max":544,"o":"m 544 729 l 532 679 q 447 531 524 642 q 369 417 369 421 q 403 361 369 413 q 535 53 471 260 l 435 22 q 289 342 383 189 q 264 415 264 382 q 339 558 264 468 q 431 703 419 657 l 443 754 l 544 729 m 319 82 l 229 29 q 165 181 207 65 q 78 335 131 272 q 36 431 36 385 q 95 558 36 461 q 160 703 154 654 l 165 754 l 268 744 q 222 574 258 642 q 142 431 182 503 q 168 388 143 418 q 203 342 199 350 q 283 154 264 231 q 319 82 290 129 z "},"¬":{"ha":736,"x_min":29,"x_max":704,"o":"m 704 -189 l 606 -221 q 581 -67 581 -149 q 575 29 581 -29 q 568 124 569 110 q 340 118 376 118 q 186 128 289 118 q 29 138 83 138 l 29 242 l 85 242 q 208 232 126 242 q 332 222 290 222 q 475 226 379 222 q 618 229 571 229 l 671 229 q 678 65 671 174 q 685 -99 685 -44 q 704 -189 685 -132 z "},"®":{"ha":782,"x_min":32,"x_max":736,"o":"m 736 592 q 642 344 736 449 q 403 238 543 238 q 154 344 272 238 q 32 583 32 456 q 104 839 32 690 q 229 928 136 906 q 390 942 283 942 l 429 942 q 440 924 425 928 q 467 918 454 921 q 660 803 583 894 q 736 592 736 711 m 404 629 q 400 647 403 642 q 367 654 390 654 q 342 651 353 654 l 342 604 q 397 622 361 610 l 404 629 m 556 429 l 483 357 q 629 582 629 417 q 579 743 629 672 q 438 822 524 822 q 422 821 432 822 q 406 819 411 819 q 385 838 382 819 q 201 804 246 838 q 158 696 179 750 q 136 583 136 633 q 229 415 136 490 q 414 343 318 343 q 481 356 450 343 q 342 493 438 404 l 342 421 l 238 421 l 238 765 l 342 765 l 342 757 l 364 757 q 467 725 424 760 q 511 631 511 690 q 460 538 511 567 q 556 429 490 500 z "},"°":{"ha":547,"x_min":36,"x_max":496,"o":"m 496 708 q 434 570 496 621 q 282 519 372 519 q 108 582 179 519 q 36 747 36 644 q 101 895 36 817 q 235 974 167 974 q 419 894 342 974 q 496 708 496 815 m 288 622 q 362 649 332 622 q 392 721 392 675 q 329 832 392 790 q 203 869 275 869 q 140 747 140 800 q 186 654 140 689 q 288 622 226 622 z "},"±":{"ha":628,"x_min":21,"x_max":624,"o":"m 624 428 q 497 418 575 428 q 369 406 397 408 l 371 138 l 267 138 q 265 399 267 275 q 235 399 254 397 q 206 401 213 401 q 119 389 172 401 q 33 372 50 374 l 21 475 q 250 501 88 486 l 264 503 l 263 754 l 367 754 q 368 510 367 621 q 496 522 397 513 q 624 532 575 532 l 624 428 m 585 -8 l 36 -8 l 36 97 l 585 97 l 585 -8 z "},"²":{"ha":465,"x_min":40,"x_max":421,"o":"m 421 528 q 233 526 358 528 q 46 524 108 524 q 126 641 64 560 q 218 747 188 722 q 285 847 285 804 q 247 883 285 883 q 143 761 163 883 l 40 778 q 246 989 75 989 q 345 946 301 989 q 389 847 389 903 q 249 628 389 732 l 281 626 q 350 628 306 625 q 421 632 401 632 l 421 528 z "},"³":{"ha":438,"x_min":46,"x_max":394,"o":"m 394 635 q 338 540 394 579 q 225 501 282 501 q 136 529 190 501 q 51 575 93 551 l 100 668 q 164 629 132 649 q 233 608 203 608 q 290 635 265 608 q 281 706 290 683 q 224 736 265 736 q 167 732 204 736 q 111 728 131 728 l 99 728 q 189 806 144 767 q 257 892 254 865 q 225 893 238 893 q 168 876 189 893 q 129 829 158 868 l 46 892 q 124 971 89 950 q 231 997 164 997 q 361 896 361 997 q 324 781 361 828 q 394 635 394 719 z "},"´":{"ha":325,"x_min":-99,"x_max":349,"o":"m 349 1267 q 256 1208 319 1244 q 161 1149 192 1172 q 58 1088 122 1118 q -50 1035 4 1061 l -99 1126 q 97 1229 -1 1178 q 283 1349 211 1290 l 349 1267 z "},"¶":{"ha":811,"x_min":42,"x_max":743,"o":"m 742 967 l 743 676 q 739 419 743 576 q 733 161 733 244 q 719 -17 733 53 l 617 4 q 629 275 629 63 q 634 471 629 339 q 639 671 639 603 l 638 863 l 550 863 q 540 438 549 756 q 533 13 533 171 l 429 13 l 429 333 q 433 406 429 358 q 436 479 436 453 q 319 468 374 468 q 125 522 200 468 q 42 697 42 582 q 76 838 42 771 q 176 940 114 911 q 494 978 253 978 l 494 969 l 550 969 l 550 967 l 742 967 z "},"·":{"ha":326,"x_min":50,"x_max":268,"o":"m 268 264 q 67 235 213 258 l 50 379 q 256 408 119 390 l 268 264 z "},"¸":{"ha":314,"x_min":17,"x_max":314,"o":"m 242 3 q 232 -56 240 -33 q 210 -110 221 -83 q 286 -160 258 -121 q 314 -251 314 -200 q 266 -380 314 -326 q 144 -433 218 -433 q 76 -404 114 -433 q 17 -357 46 -381 l 74 -271 q 149 -328 124 -304 q 192 -306 175 -326 q 210 -256 210 -285 q 154 -200 210 -218 q 64 -175 108 -187 q 114 -89 89 -132 q 138 8 135 -49 l 242 3 z "},"¹":{"ha":236,"x_min":74,"x_max":188,"o":"m 179 524 l 75 524 l 74 621 q 78 698 74 647 q 83 775 83 749 q 81 853 83 801 q 79 932 79 906 l 79 990 l 183 990 q 185 879 183 953 q 188 768 188 806 q 183 714 188 749 q 179 658 179 675 q 179 524 179 658 z "},"º":{"ha":610,"x_min":43,"x_max":568,"o":"m 568 681 q 474 473 568 564 q 264 382 381 382 q 97 468 158 382 q 43 654 43 544 q 114 851 43 771 q 147 905 129 878 q 196 933 164 932 l 224 954 l 275 954 q 485 879 401 954 q 568 681 568 804 m 464 681 q 417 797 464 746 q 303 849 369 849 q 231 829 265 849 q 164 753 197 790 q 151 640 151 732 q 264 485 151 485 q 401 547 338 485 q 464 681 464 608 z "},"»":{"ha":556,"x_min":31,"x_max":518,"o":"m 518 435 q 451 245 518 353 q 383 93 383 138 l 383 42 l 279 42 l 279 93 q 346 271 279 167 q 413 436 413 375 q 354 519 393 464 q 222 736 307 590 l 317 781 q 431 594 329 753 q 518 435 518 457 m 318 346 q 250 200 318 299 q 157 53 168 79 l 136 4 l 40 43 q 181 288 90 165 q 202 317 192 301 q 213 347 213 332 q 136 475 189 396 q 69 588 89 546 q 31 738 39 656 l 133 749 l 139 697 q 235 501 147 625 q 318 346 318 382 z "},"¼":{"ha":963,"x_min":33,"x_max":950,"o":"m 950 206 q 807 174 897 193 l 807 25 l 703 25 l 703 151 l 689 150 q 660 156 679 150 q 632 163 642 163 q 531 154 596 163 q 429 142 444 143 q 567 436 467 304 q 803 661 653 547 q 806 282 803 478 q 925 307 883 297 l 950 206 m 167 469 l 63 469 l 63 944 l 167 944 l 167 469 m 688 949 l 683 897 q 619 753 678 828 q 519 625 569 689 q 389 397 476 560 q 256 169 310 247 q 126 -44 174 53 l 33 1 q 153 197 67 71 q 272 390 239 324 q 524 801 382 608 q 570 875 560 849 q 585 957 581 901 l 688 949 m 701 260 l 700 408 q 649 332 683 375 q 593 260 600 269 q 619 263 604 263 q 651 260 631 263 q 681 258 671 258 q 701 260 693 258 z "},"½":{"ha":886,"x_min":14,"x_max":878,"o":"m 878 76 q 631 38 808 57 q 431 11 571 26 q 504 144 474 106 q 610 254 522 168 q 689 401 689 332 q 683 438 689 419 q 581 417 617 438 q 503 339 546 396 l 421 403 q 535 509 476 476 q 683 542 593 542 q 790 392 790 542 q 744 251 790 318 q 643 142 715 208 q 851 176 751 150 l 878 76 m 194 963 q 190 738 194 888 q 186 514 186 588 l 82 514 q 86 738 82 588 q 90 963 90 888 l 194 963 m 665 933 q 574 758 640 832 q 451 613 474 650 q 275 299 374 485 q 107 -22 190 138 l 14 28 q 183 347 99 188 q 360 663 282 535 q 475 803 382 699 q 565 961 542 878 l 665 933 z "},"¾":{"ha":1036,"x_min":10,"x_max":1024,"o":"m 1024 225 l 993 225 q 908 210 950 225 q 913 29 913 143 l 808 29 q 806 194 808 135 l 779 196 q 665 189 739 196 q 550 181 586 181 q 581 297 564 267 q 649 394 615 346 q 742 526 724 503 q 860 638 785 578 q 901 315 889 456 q 989 329 938 329 l 1024 329 l 1024 225 m 358 547 q 274 410 358 457 q 111 350 258 401 l 78 449 q 183 481 131 464 q 254 547 254 507 q 182 660 254 621 q 49 714 115 688 q 157 756 103 726 q 229 833 229 794 q 222 857 229 846 q 140 844 169 857 q 72 801 118 835 l 10 885 q 201 963 113 963 q 295 928 257 963 q 333 839 333 894 q 281 722 333 775 q 358 547 358 651 m 767 915 q 729 806 750 842 q 682 750 715 782 q 614 672 643 711 q 535 539 579 624 q 460 401 475 428 q 151 -99 353 238 l 61 -49 q 214 206 115 53 q 371 457 344 411 q 482 642 426 549 q 608 818 547 747 q 665 940 650 868 l 767 915 m 799 299 q 788 417 794 358 q 703 294 761 375 q 799 299 729 299 z "},"¿":{"ha":531,"x_min":15,"x_max":529,"o":"m 529 771 q 356 753 449 751 l 356 857 q 507 872 438 857 l 529 771 m 507 -106 q 410 -143 458 -124 q 307 -164 351 -164 q 110 -100 194 -164 q 15 78 15 -31 q 114 340 15 247 q 379 436 207 428 q 385 549 381 469 q 389 661 389 621 l 493 661 q 488 497 493 607 q 483 333 483 386 q 229 296 303 333 q 119 78 119 240 q 183 -25 119 14 q 307 -60 239 -60 q 390 -39 336 -60 q 472 -7 432 -24 l 507 -106 z "},"À":{"ha":696,"x_min":28,"x_max":686,"o":"m 688 24 l 589 -11 q 481 328 526 161 q 342 329 439 328 q 203 329 249 329 q 167 163 189 286 q 125 -4 149 56 l 28 35 q 79 232 54 101 q 128 431 107 369 q 219 644 136 454 q 289 867 276 774 l 306 1004 q 456 711 354 932 q 519 578 479 668 q 601 300 547 493 q 688 24 653 121 m 453 432 q 419 547 442 471 q 385 622 410 575 q 351 692 360 669 q 297 563 333 640 q 240 433 250 458 l 453 432 m 588 1126 l 538 1035 q 429 1088 483 1061 q 326 1149 365 1118 q 233 1208 297 1172 q 139 1267 168 1244 l 204 1349 q 390 1229 276 1290 q 588 1126 489 1178 z "},"Á":{"ha":696,"x_min":28,"x_max":686,"o":"m 688 24 l 589 -11 q 481 328 526 161 q 342 329 439 328 q 203 329 249 329 q 167 163 189 286 q 125 -4 149 56 l 28 35 q 79 232 54 101 q 128 431 107 369 q 219 644 136 454 q 289 867 276 774 l 306 1004 q 456 711 354 932 q 519 578 479 668 q 601 300 547 493 q 688 24 653 121 m 453 432 q 419 547 442 471 q 385 622 410 575 q 351 692 360 669 q 297 563 333 640 q 240 433 250 458 l 453 432 m 665 1267 q 572 1208 636 1244 q 478 1149 508 1172 q 375 1088 439 1118 q 267 1035 321 1061 l 218 1126 q 414 1229 315 1178 q 600 1349 528 1290 l 665 1267 z "},"Â":{"ha":696,"x_min":28,"x_max":688,"o":"m 688 24 l 589 -11 q 481 328 526 161 q 342 329 439 328 q 203 329 249 329 q 167 163 189 286 q 125 -4 149 56 l 28 35 q 79 232 54 101 q 128 431 107 369 q 219 644 136 454 q 289 867 276 774 l 306 1004 q 456 711 354 932 q 519 578 479 668 q 601 300 547 493 q 688 24 653 121 m 453 432 q 419 547 442 471 q 385 622 410 575 q 351 692 360 669 q 297 563 333 640 q 240 433 250 458 l 453 432 m 622 1031 l 535 975 q 442 1094 508 1017 q 347 1219 375 1172 q 181 1006 292 1149 l 97 1069 q 224 1233 161 1151 q 332 1408 293 1328 q 432 1282 397 1343 q 526 1156 460 1233 q 622 1031 597 1072 z "},"Ã":{"ha":696,"x_min":28,"x_max":686,"o":"m 688 24 l 589 -11 q 481 328 526 161 q 342 329 439 328 q 203 329 249 329 q 167 163 189 286 q 125 -4 149 56 l 28 35 q 79 232 54 101 q 128 431 107 369 q 219 644 136 454 q 289 867 276 774 l 306 1004 q 456 711 354 932 q 519 578 479 668 q 601 300 547 493 q 688 24 653 121 m 453 432 q 419 547 442 471 q 385 622 410 575 q 351 692 360 669 q 297 563 333 640 q 240 433 250 458 l 453 432 m 686 1285 q 647 1143 686 1211 q 533 1065 601 1065 q 408 1111 467 1065 q 317 1197 363 1154 q 214 1244 264 1244 q 171 1072 178 1201 l 67 1079 q 214 1353 82 1353 q 351 1304 288 1353 q 444 1217 361 1297 q 533 1169 494 1169 q 582 1338 583 1196 l 686 1338 l 686 1285 z "},"Ä":{"ha":689,"x_min":21,"x_max":681,"o":"m 681 24 l 582 -11 q 474 328 519 161 q 335 329 432 328 q 196 329 242 329 q 160 163 182 286 q 118 -4 142 56 l 21 35 q 72 232 47 101 q 121 431 100 369 q 213 644 129 454 q 282 867 269 774 l 299 1004 q 449 711 347 932 q 513 578 472 668 q 594 300 540 493 q 681 24 646 121 m 446 432 q 413 547 435 471 q 378 622 403 575 q 344 692 353 669 q 290 563 326 640 q 233 433 243 458 l 446 432 m 615 1069 q 414 1040 561 1064 l 399 1185 q 604 1214 467 1196 l 615 1069 m 296 1069 q 94 1040 242 1064 l 79 1185 q 285 1214 147 1196 l 296 1069 z "},"Å":{"ha":696,"x_min":28,"x_max":688,"o":"m 688 24 l 589 -11 q 481 328 526 161 q 342 329 439 328 q 203 329 249 329 q 167 163 189 286 q 125 -4 149 56 l 28 35 q 79 232 54 101 q 128 431 107 369 q 219 644 136 454 q 289 867 276 774 l 306 1004 q 456 711 354 932 q 519 578 479 668 q 601 300 547 493 q 688 24 653 121 m 453 432 q 419 547 442 471 q 385 622 410 575 q 351 692 360 669 q 297 563 333 640 q 240 433 250 458 l 453 432 m 675 1206 q 615 1025 675 1093 q 442 953 553 953 q 268 1007 346 953 q 182 1160 182 1068 q 236 1324 182 1251 q 383 1403 294 1403 q 397 1403 397 1403 q 426 1408 404 1403 q 456 1414 443 1414 q 613 1356 550 1414 q 675 1206 675 1299 m 571 1206 q 468 1306 571 1306 q 426 1301 454 1306 q 383 1297 399 1297 q 311 1249 339 1297 q 286 1160 286 1207 q 346 1081 286 1107 q 451 1061 390 1061 q 571 1206 571 1061 z "},"Æ":{"ha":1124,"x_min":-37,"x_max":1139,"o":"m 1139 885 q 643 861 974 881 q 640 771 643 832 q 638 679 638 710 q 642 608 638 658 q 643 539 644 564 l 693 538 q 1018 585 854 533 l 1049 485 q 639 435 864 428 q 635 146 633 196 l 635 103 l 699 101 q 1031 144 904 100 l 1065 46 q 678 -1 931 -1 q 526 -25 582 -1 q 526 321 519 151 q 249 344 433 329 q 160 179 222 303 q 65 17 106 74 l -37 17 q 39 146 0 68 q 103 281 71 214 q 315 610 165 410 q 539 932 483 838 l 539 950 l 540 950 l 540 954 l 551 956 l 583 981 q 597 970 588 969 q 610 964 606 971 q 871 981 710 978 q 1132 989 1082 986 l 1139 885 m 535 560 q 524 630 535 585 q 513 696 514 675 q 319 446 447 613 l 531 428 q 535 560 535 521 z "},"Ç":{"ha":640,"x_min":8,"x_max":667,"o":"m 667 794 l 567 764 q 522 842 553 822 q 439 857 499 857 l 379 857 q 259 837 290 857 q 189 735 228 817 q 113 446 113 574 q 185 196 113 292 q 414 89 265 89 q 503 118 457 89 q 578 178 517 126 l 643 97 q 551 26 581 44 q 444 -14 496 -8 q 413 -110 443 -37 q 490 -160 463 -121 q 517 -251 517 -200 q 469 -380 517 -326 q 347 -433 422 -433 q 281 -404 318 -433 q 219 -357 250 -381 l 278 -271 q 351 -328 326 -303 q 413 -257 413 -325 q 358 -200 413 -218 q 268 -175 313 -187 q 313 -95 290 -136 q 340 -10 336 -54 q 89 151 178 17 q 8 446 8 274 q 78 735 8 572 q 261 951 158 922 q 347 961 293 961 q 547 944 501 961 q 667 794 632 914 z "},"È":{"ha":547,"x_min":-51,"x_max":563,"o":"m 563 885 q 67 861 397 881 q 64 700 65 814 q 63 539 63 594 q 121 538 92 538 q 442 585 288 538 l 472 485 q 63 435 288 428 q 60 268 63 407 q 58 103 58 167 l 124 101 q 454 144 326 100 l 489 46 q 282 4 397 14 q 71 0 221 0 q -43 -10 -14 0 q -51 129 -51 38 q -44 539 -51 265 q -37 950 -37 813 l -36 950 l -36 954 q 260 978 81 971 q 556 989 535 988 l 563 885 m 538 1126 l 488 1035 q 379 1088 433 1061 q 276 1149 315 1118 q 183 1208 247 1172 q 89 1267 118 1244 l 154 1349 q 340 1229 226 1290 q 538 1126 439 1178 z "},"É":{"ha":574,"x_min":-51,"x_max":614,"o":"m 561 885 q 65 861 396 881 q 63 700 64 814 q 61 539 61 594 q 119 538 90 538 q 440 585 286 538 l 471 485 q 61 435 286 428 q 58 268 61 407 q 57 103 57 167 l 122 101 q 453 144 325 100 l 488 46 q 281 4 396 14 q 69 0 219 0 q -44 -10 -15 0 q -53 129 -53 38 q -46 539 -53 265 q -39 950 -39 813 l -37 950 l -37 954 q 258 978 79 971 q 554 989 533 988 l 561 885 m 614 1267 q 521 1208 585 1244 q 426 1149 457 1172 q 324 1088 388 1118 q 215 1035 269 1061 l 167 1126 q 363 1229 264 1178 q 549 1349 476 1290 l 614 1267 z "},"Ê":{"ha":535,"x_min":-51,"x_max":574,"o":"m 563 885 q 67 861 397 881 q 64 700 65 814 q 63 539 63 594 q 121 538 92 538 q 442 585 288 538 l 472 485 q 63 435 288 428 q 60 268 63 407 q 58 103 58 167 l 124 101 q 454 144 326 100 l 489 46 q 282 4 397 14 q 71 0 221 0 q -43 -10 -14 0 q -51 129 -51 38 q -44 539 -51 265 q -37 950 -37 813 l -36 950 l -36 954 q 260 978 81 971 q 556 989 535 988 l 563 885 m 572 1031 l 485 975 q 392 1094 458 1017 q 297 1219 325 1172 q 131 1006 242 1149 l 47 1069 q 174 1233 111 1151 q 282 1408 243 1328 q 382 1282 347 1343 q 476 1156 410 1233 q 572 1031 547 1072 z "},"Ë":{"ha":542,"x_min":-57,"x_max":567,"o":"m 557 885 q 61 861 392 881 q 58 700 60 814 q 57 539 57 594 q 115 538 86 538 q 436 585 282 538 l 467 485 q 57 435 282 428 q 54 268 57 407 q 53 103 53 167 l 118 101 q 449 144 321 100 l 483 46 q 276 4 392 14 q 65 0 215 0 q -49 -10 -19 0 q -57 129 -57 38 q -50 539 -57 265 q -43 950 -43 813 l -42 950 l -42 954 q 254 978 75 971 q 550 989 529 988 l 557 885 m 567 1069 q 365 1040 513 1064 l 350 1185 q 556 1214 418 1196 l 567 1069 m 247 1069 q 46 1040 193 1064 l 31 1185 q 236 1214 99 1196 l 247 1069 z "},"Ì":{"ha":625,"x_min":50,"x_max":610,"o":"m 610 -3 l 168 -8 q 81 17 164 -8 l 107 117 q 247 97 179 97 l 268 97 l 268 176 q 279 526 267 297 q 293 876 293 765 q 114 854 201 868 l 97 957 q 581 990 294 990 l 581 886 q 397 883 461 886 q 383 531 397 771 q 372 178 371 300 l 372 99 l 608 101 l 610 -3 m 499 1126 l 449 1035 q 340 1088 394 1061 q 238 1149 276 1118 q 144 1208 208 1172 q 50 1267 79 1244 l 115 1349 q 301 1229 188 1290 q 499 1126 400 1178 z "},"Í":{"ha":578,"x_min":32,"x_max":561,"o":"m 563 -3 l 121 -8 q 33 17 117 -8 l 60 117 q 200 97 132 97 l 221 97 l 221 176 q 232 526 219 297 q 246 876 246 765 q 67 854 154 868 l 50 957 q 533 990 247 990 l 533 886 q 350 883 414 886 q 336 531 350 771 q 325 178 324 300 l 325 99 l 561 101 l 563 -3 m 529 1267 q 436 1208 500 1244 q 342 1149 372 1172 q 239 1088 303 1118 q 131 1035 185 1061 l 82 1126 q 278 1229 179 1178 q 464 1349 392 1290 l 529 1267 z "},"Î":{"ha":579,"x_min":40,"x_max":592,"o":"m 569 -3 l 128 -8 q 40 17 124 -8 l 67 117 q 207 97 139 97 l 228 97 l 228 176 q 239 526 226 297 q 253 876 253 765 q 74 854 161 868 l 57 957 q 540 990 254 990 l 540 886 q 357 883 421 886 q 343 531 357 771 q 332 178 331 300 l 332 99 l 568 101 l 569 -3 m 590 1058 l 503 1003 q 410 1122 476 1044 q 315 1247 343 1200 q 149 1033 260 1176 l 65 1097 q 192 1261 129 1179 q 300 1436 261 1356 q 400 1310 365 1371 q 494 1183 428 1261 q 590 1058 565 1100 z "},"Ï":{"ha":608,"x_min":49,"x_max":592,"o":"m 593 -3 l 151 -8 q 64 17 147 -8 l 90 117 q 231 97 163 97 l 251 97 l 251 176 q 263 526 250 297 q 276 876 276 765 q 97 854 185 868 l 81 957 q 564 990 278 990 l 564 886 q 381 883 444 886 q 367 531 381 771 q 356 178 354 300 l 356 99 l 592 101 l 593 -3 m 586 1069 q 385 1040 532 1064 l 369 1185 q 575 1214 438 1196 l 586 1069 m 267 1069 q 65 1040 213 1064 l 50 1185 q 256 1214 118 1196 l 267 1069 z "},"Ð":{"ha":821,"x_min":29,"x_max":783,"o":"m 783 422 q 585 142 783 267 q 250 -15 513 96 l 214 -14 q 203 113 204 25 q 204 276 201 172 q 207 414 207 388 l 207 428 q 67 394 143 424 l 29 492 q 206 533 129 531 l 203 965 l 222 967 q 306 957 257 968 q 386 936 346 946 q 707 775 625 886 q 783 422 783 672 m 679 422 q 649 665 679 589 q 535 781 619 742 q 301 850 476 808 q 307 531 303 731 q 468 526 386 525 l 468 422 q 308 426 372 422 q 313 125 313 239 q 540 238 483 201 q 679 422 679 326 z "},"Ñ":{"ha":751,"x_min":56,"x_max":692,"o":"m 692 910 l 689 153 q 669 42 689 104 q 631 -65 650 -11 q 536 97 600 13 q 422 246 478 172 q 290 440 367 319 q 164 636 185 606 q 161 401 163 524 q 160 -17 160 218 l 56 -17 q 60 495 56 154 q 64 1007 64 836 q 281 651 131 868 q 588 203 378 499 q 581 433 581 306 q 584 672 581 513 q 588 910 588 831 l 692 910 m 679 1285 q 640 1143 679 1211 q 526 1065 594 1065 q 401 1111 460 1065 q 310 1197 356 1154 q 207 1244 257 1244 q 164 1072 171 1201 l 60 1079 q 207 1353 75 1353 q 344 1304 281 1353 q 438 1217 354 1297 q 526 1169 488 1169 q 575 1338 576 1196 l 679 1338 l 679 1285 z "},"Ò":{"ha":764,"x_min":47,"x_max":729,"o":"m 729 440 q 656 121 729 239 q 376 -22 567 -22 q 143 89 240 -22 q 47 332 47 194 q 149 671 47 497 q 403 908 256 854 q 510 946 440 918 l 551 922 q 628 864 611 888 q 663 776 640 847 q 729 440 729 558 m 625 440 q 594 663 625 535 q 492 833 553 831 q 376 776 451 817 q 217 578 282 706 q 151 332 151 450 q 217 163 151 238 q 376 83 283 83 q 625 440 625 83 m 583 1126 l 533 1035 q 425 1088 479 1061 q 322 1149 361 1118 q 228 1208 293 1172 q 135 1267 164 1244 l 200 1349 q 386 1229 272 1290 q 583 1126 485 1178 z "},"Ó":{"ha":764,"x_min":47,"x_max":729,"o":"m 729 440 q 656 121 729 239 q 376 -22 567 -22 q 143 89 240 -22 q 47 332 47 194 q 149 671 47 497 q 403 908 256 854 q 510 946 440 918 l 551 922 q 628 864 611 888 q 663 776 640 847 q 729 440 729 558 m 625 440 q 594 663 625 535 q 492 833 553 831 q 376 776 451 817 q 217 578 282 706 q 151 332 151 450 q 217 163 151 238 q 376 83 283 83 q 625 440 625 83 m 661 1267 q 568 1208 632 1244 q 474 1149 504 1172 q 371 1088 435 1118 q 263 1035 317 1061 l 214 1126 q 410 1229 311 1178 q 596 1349 524 1290 l 661 1267 z "},"Ô":{"ha":760,"x_min":44,"x_max":726,"o":"m 726 440 q 653 121 726 239 q 374 -22 564 -22 q 140 89 238 -22 q 44 332 44 194 q 146 671 44 497 q 400 908 253 854 q 507 946 438 918 l 549 922 q 625 864 608 888 q 660 776 638 847 q 726 440 726 558 m 622 440 q 592 663 622 535 q 489 833 550 831 q 374 776 449 817 q 214 578 279 706 q 149 332 149 450 q 214 163 149 238 q 374 83 281 83 q 622 440 622 83 m 671 1031 l 583 975 q 490 1094 557 1017 q 396 1219 424 1172 q 229 1006 340 1149 l 146 1069 q 272 1233 210 1151 q 381 1408 342 1328 q 481 1282 446 1343 q 575 1156 508 1233 q 671 1031 646 1072 z "},"Õ":{"ha":765,"x_min":49,"x_max":731,"o":"m 731 440 q 657 121 731 239 q 378 -22 568 -22 q 144 89 242 -22 q 49 332 49 194 q 150 671 49 497 q 404 908 257 854 q 511 946 442 918 l 553 922 q 629 864 613 888 q 664 776 642 847 q 731 440 731 558 m 626 440 q 596 663 626 535 q 493 833 554 831 q 378 776 453 817 q 218 578 283 706 q 153 332 153 450 q 218 163 153 238 q 378 83 285 83 q 626 440 626 83 m 683 1285 q 644 1143 683 1211 q 531 1065 599 1065 q 406 1111 464 1065 q 314 1197 360 1154 q 211 1244 261 1244 q 168 1072 175 1201 l 64 1079 q 211 1353 79 1353 q 349 1304 285 1353 q 442 1217 358 1297 q 531 1169 492 1169 q 579 1338 581 1196 l 683 1338 l 683 1285 z "},"Ö":{"ha":760,"x_min":44,"x_max":726,"o":"m 725 440 q 651 121 725 239 q 372 -22 563 -22 q 139 89 236 -22 q 43 332 43 194 q 144 671 43 497 q 399 908 251 854 q 506 946 436 918 l 547 922 q 624 864 607 888 q 658 776 636 847 q 725 440 725 558 m 621 440 q 590 663 621 535 q 488 833 549 831 q 372 776 447 817 q 213 578 278 706 q 147 332 147 450 q 213 163 147 238 q 372 83 279 83 q 621 440 621 83 m 614 1069 q 413 1040 560 1064 l 397 1185 q 603 1214 465 1196 l 614 1069 m 294 1069 q 93 1040 240 1064 l 78 1185 q 283 1214 146 1196 l 294 1069 z "},"×":{"ha":669,"x_min":29,"x_max":649,"o":"m 649 543 q 511 438 590 508 q 381 322 396 335 q 619 63 457 232 l 547 -14 q 422 119 496 36 q 300 257 314 243 q 115 63 193 165 l 32 126 q 231 333 117 236 q 29 611 118 463 l 119 664 q 311 399 207 517 q 449 521 322 408 q 596 632 532 594 l 649 543 z "},"Ø":{"ha":756,"x_min":39,"x_max":721,"o":"m 721 440 q 647 121 721 239 q 367 -22 557 -22 q 207 25 281 -22 q 97 -72 172 -22 l 39 14 q 131 92 101 54 q 42 347 42 194 q 140 678 42 514 q 394 908 244 849 q 500 946 431 917 q 589 897 531 932 q 621 963 603 922 l 715 919 q 646 801 693 868 q 721 440 721 567 m 529 811 q 483 833 514 831 q 368 776 443 817 q 210 582 276 708 q 143 344 143 456 q 193 181 143 249 q 388 544 261 289 q 454 681 421 613 q 529 811 493 758 m 575 692 q 432 396 556 656 q 267 111 346 215 q 367 83 315 83 q 615 413 615 83 q 575 692 615 549 z "},"Ù":{"ha":710,"x_min":61,"x_max":654,"o":"m 656 390 q 571 114 656 231 q 324 -17 478 -17 q 104 118 167 -17 q 61 389 61 211 q 65 674 61 483 q 69 958 69 864 l 174 958 q 169 667 174 861 q 165 375 165 472 q 186 189 165 249 q 324 89 221 89 q 492 182 428 89 q 550 374 546 263 q 550 465 550 361 l 550 933 l 654 933 l 656 390 m 592 1126 l 542 1035 q 433 1088 488 1061 q 331 1149 369 1118 q 237 1208 301 1172 q 143 1267 172 1244 l 208 1349 q 394 1229 281 1290 q 592 1126 493 1178 z "},"Ú":{"ha":715,"x_min":65,"x_max":674,"o":"m 660 390 q 575 114 660 231 q 328 -17 482 -17 q 108 118 171 -17 q 65 389 65 211 q 69 674 65 483 q 74 958 74 864 l 178 958 q 174 667 178 861 q 169 375 169 472 q 190 189 169 249 q 328 89 225 89 q 496 182 432 89 q 554 374 550 263 q 554 465 554 361 l 554 933 l 658 933 l 660 390 m 674 1267 q 581 1208 644 1244 q 486 1149 517 1172 q 383 1088 447 1118 q 275 1035 329 1061 l 226 1126 q 422 1229 324 1178 q 608 1349 536 1290 l 674 1267 z "},"Û":{"ha":721,"x_min":64,"x_max":657,"o":"m 658 390 q 574 114 658 231 q 326 -17 481 -17 q 107 118 169 -17 q 64 389 64 211 q 68 674 64 483 q 72 958 72 864 l 176 958 q 172 667 176 861 q 168 375 168 472 q 189 189 168 249 q 326 89 224 89 q 494 182 431 89 q 553 374 549 263 q 553 465 553 361 l 553 933 l 657 933 l 658 390 m 629 1031 l 542 975 q 449 1094 515 1017 q 354 1219 382 1172 q 188 1006 299 1149 l 104 1069 q 231 1233 168 1151 q 339 1408 300 1328 q 439 1282 404 1343 q 533 1156 467 1233 q 629 1031 604 1072 z "},"Ü":{"ha":711,"x_min":61,"x_max":656,"o":"m 656 390 q 571 114 656 231 q 324 -17 478 -17 q 104 118 167 -17 q 61 389 61 211 q 65 674 61 483 q 69 958 69 864 l 174 958 q 169 667 174 861 q 165 375 165 472 q 186 189 165 249 q 324 89 221 89 q 492 182 428 89 q 550 374 546 263 q 550 465 550 361 l 550 933 l 654 933 l 656 390 m 626 1069 q 425 1040 572 1064 l 410 1185 q 615 1214 478 1196 l 626 1069 m 307 1069 q 106 1040 253 1064 l 90 1185 q 296 1214 158 1196 l 307 1069 z "},"Ý":{"ha":647,"x_min":21,"x_max":643,"o":"m 635 963 q 539 703 614 847 q 408 456 474 579 q 350 344 374 382 l 350 21 l 246 21 l 246 378 l 253 389 q 126 572 215 433 q 40 754 63 672 q 22 954 22 826 l 126 954 q 172 704 126 818 q 307 486 214 601 q 436 728 371 607 q 532 982 513 872 l 635 963 m 643 1267 q 550 1208 614 1244 q 456 1149 486 1172 q 353 1088 417 1118 q 244 1035 299 1061 l 196 1126 q 392 1229 293 1178 q 578 1349 506 1290 l 643 1267 z "},"Þ":{"ha":600,"x_min":17,"x_max":592,"o":"m 592 489 q 485 315 592 379 q 276 243 417 275 q 133 200 149 215 q 136 -8 136 108 l 32 -8 q 26 275 32 101 q 18 557 19 503 l 17 557 q 20 764 17 625 q 24 972 24 903 l 128 972 q 124 871 128 940 q 121 772 121 807 l 121 747 q 228 758 171 758 q 471 696 369 758 q 592 489 592 622 m 488 489 q 393 618 488 574 q 224 653 319 653 q 121 639 164 653 q 129 315 122 529 q 342 365 236 340 q 488 489 488 410 z "},"ß":{"ha":575,"x_min":44,"x_max":542,"o":"m 542 296 q 431 101 542 179 q 213 15 346 42 l 193 117 q 349 171 285 136 q 438 296 438 222 q 340 410 438 354 q 190 478 310 428 q 329 560 288 517 q 385 708 385 617 q 347 829 385 774 q 243 893 304 893 q 172 785 188 893 q 165 635 169 710 q 150 -136 150 404 l 46 -136 l 44 164 q 61 646 44 436 q 71 796 67 721 q 114 935 81 888 q 243 997 156 997 q 421 910 351 997 q 485 717 485 828 q 392 492 485 581 q 542 296 542 425 z "},"à":{"ha":624,"x_min":33,"x_max":624,"o":"m 565 18 l 461 7 l 450 100 q 240 -14 367 -14 q 92 49 149 -14 q 35 204 35 113 q 100 367 35 306 q 267 428 165 428 q 436 389 368 428 l 436 403 q 376 549 440 476 q 236 621 311 621 q 169 609 181 621 q 150 540 158 597 l 47 560 q 102 690 63 654 q 236 725 142 725 q 518 504 425 725 q 540 444 540 453 q 538 355 540 414 q 536 267 536 296 q 547 142 536 217 q 565 18 563 33 m 413 282 q 267 324 357 324 q 169 293 196 324 q 142 190 142 263 q 229 92 142 92 q 356 151 301 92 q 413 282 411 210 m 624 899 l 574 807 q 465 860 519 833 q 363 921 401 890 q 269 981 333 944 q 175 1039 204 1017 l 240 1121 q 426 1001 313 1063 q 624 899 525 950 z "},"á":{"ha":603,"x_min":33,"x_max":646,"o":"m 565 18 l 461 7 l 450 100 q 240 -14 367 -14 q 92 49 149 -14 q 35 204 35 113 q 100 367 35 306 q 267 428 165 428 q 436 389 368 428 l 436 403 q 376 549 440 476 q 236 621 311 621 q 169 609 181 621 q 150 540 158 597 l 47 560 q 102 690 63 654 q 236 725 142 725 q 518 504 425 725 q 540 444 540 453 q 538 355 540 414 q 536 267 536 296 q 547 142 536 217 q 565 18 563 33 m 413 282 q 267 324 357 324 q 169 293 196 324 q 142 190 142 263 q 229 92 142 92 q 356 151 301 92 q 413 282 411 210 m 646 1039 q 553 981 617 1017 q 458 921 489 944 q 356 860 419 890 q 247 807 301 833 l 199 899 q 394 1001 296 950 q 581 1121 508 1063 l 646 1039 z "},"â":{"ha":632,"x_min":31,"x_max":614,"o":"m 561 18 l 457 7 l 446 100 q 236 -14 363 -14 q 88 49 144 -14 q 31 204 31 113 q 96 367 31 306 q 263 428 161 428 q 432 389 364 428 l 432 403 q 372 549 436 476 q 232 621 307 621 q 165 609 176 621 q 146 540 154 597 l 43 560 q 98 690 58 654 q 232 725 138 725 q 514 504 421 725 q 536 444 536 453 q 534 355 536 414 q 532 267 532 296 q 543 142 532 217 q 561 18 558 33 m 408 282 q 263 324 353 324 q 165 293 192 324 q 138 190 138 263 q 225 92 138 92 q 352 151 297 92 q 408 282 407 210 m 613 803 l 525 747 q 432 867 499 789 q 338 992 365 944 q 171 778 282 921 l 88 842 q 214 1006 151 924 q 322 1181 283 1100 q 422 1054 388 1115 q 517 928 450 1006 q 613 803 588 844 z "},"ã":{"ha":599,"x_min":-6,"x_max":642,"o":"m 526 18 l 422 7 l 411 100 q 201 -14 328 -14 q 53 49 110 -14 q -4 204 -4 113 q 61 367 -4 306 q 228 428 126 428 q 397 389 329 428 l 397 403 q 337 549 401 476 q 197 621 272 621 q 131 609 142 621 q 111 540 119 597 l 8 560 q 63 690 24 654 q 197 725 103 725 q 479 504 386 725 q 501 444 501 453 q 499 355 501 414 q 497 267 497 296 q 508 142 497 217 q 526 18 524 33 m 374 282 q 228 324 318 324 q 130 293 157 324 q 103 190 103 263 q 190 92 103 92 q 317 151 263 92 q 374 282 372 210 m 642 1057 q 603 915 642 983 q 489 838 557 838 q 364 883 422 838 q 272 969 318 926 q 169 1017 219 1017 q 126 844 133 974 l 22 851 q 169 1125 38 1125 q 307 1076 243 1125 q 400 989 317 1069 q 489 942 450 942 q 538 1110 539 968 l 642 1110 l 642 1057 z "},"ä":{"ha":618,"x_min":25,"x_max":608,"o":"m 557 18 l 453 7 l 442 100 q 232 -14 358 -14 q 83 49 140 -14 q 26 204 26 113 q 92 367 26 306 q 258 428 157 428 q 428 389 360 428 l 428 403 q 367 549 432 476 q 228 621 303 621 q 161 609 172 621 q 142 540 150 597 l 39 560 q 94 690 54 654 q 228 725 133 725 q 510 504 417 725 q 532 444 532 453 q 530 355 532 414 q 528 267 528 296 q 539 142 528 217 q 557 18 554 33 m 404 282 q 258 324 349 324 q 160 293 188 324 q 133 190 133 263 q 221 92 133 92 q 348 151 293 92 q 404 282 403 210 m 608 842 q 407 813 554 836 l 392 957 q 597 986 460 968 l 608 842 m 289 842 q 88 813 235 836 l 72 957 q 278 986 140 968 l 289 842 z "},"å":{"ha":700,"x_min":47,"x_max":671,"o":"m 578 18 l 474 7 l 463 100 q 253 -14 379 -14 q 104 49 161 -14 q 47 204 47 113 q 113 367 47 306 q 279 428 178 428 q 449 389 381 428 l 449 403 q 388 549 453 476 q 249 621 324 621 q 182 609 193 621 q 163 540 171 597 l 60 560 q 115 690 75 654 q 249 725 154 725 q 531 504 438 725 q 553 444 553 453 q 551 355 553 414 q 549 267 549 296 q 560 142 549 217 q 578 18 575 33 m 425 282 q 279 324 369 324 q 181 293 208 324 q 154 190 154 263 q 242 92 154 92 q 369 151 314 92 q 425 282 424 210 m 671 925 q 611 744 671 813 q 438 672 549 672 q 264 726 342 672 q 178 879 178 788 q 232 1043 178 971 q 379 1122 290 1122 q 393 1122 393 1122 q 422 1128 400 1122 q 451 1133 439 1133 q 608 1076 546 1133 q 671 925 671 1018 m 567 925 q 464 1025 567 1025 q 422 1021 450 1025 q 379 1017 394 1017 q 307 968 335 1017 q 282 879 282 926 q 342 800 282 826 q 447 781 386 781 q 567 925 567 781 z "},"æ":{"ha":1038,"x_min":31,"x_max":1001,"o":"m 1001 390 q 977 312 1001 333 q 897 290 953 290 q 728 293 843 290 q 560 297 618 297 l 533 297 l 533 285 q 618 135 531 186 q 796 92 689 92 q 871 110 826 92 q 940 142 906 125 l 981 46 q 892 7 936 26 q 796 -14 839 -14 q 558 54 660 -14 l 561 18 l 458 7 l 447 100 q 238 -14 364 -14 q 88 49 146 -14 q 31 204 31 113 q 97 367 31 306 q 264 428 163 428 q 433 389 365 428 l 433 403 q 372 549 438 476 q 233 621 307 621 q 167 609 178 621 q 146 540 156 597 l 44 560 q 98 690 60 656 q 233 725 136 725 q 497 542 403 725 q 790 719 601 719 q 961 607 908 719 q 1001 390 1001 524 m 897 394 q 881 532 889 464 q 790 615 861 615 q 630 552 703 615 q 542 401 557 489 l 554 401 q 697 397 603 401 q 838 393 792 393 q 897 394 869 393 m 408 282 q 264 324 354 324 q 166 293 193 324 q 139 190 139 263 q 226 92 139 92 q 353 151 299 92 q 408 282 408 210 z "},"ç":{"ha":581,"x_min":21,"x_max":590,"o":"m 590 642 l 538 553 q 415 604 472 592 q 286 615 369 615 q 164 494 215 615 q 122 311 122 396 q 181 158 122 225 q 325 92 240 92 q 424 111 386 92 q 500 178 453 128 l 575 107 q 363 -11 472 -3 q 331 -110 361 -36 q 408 -160 381 -121 q 435 -251 435 -200 q 388 -380 435 -326 q 265 -433 340 -433 q 199 -404 236 -433 q 138 -357 168 -381 l 196 -271 q 269 -328 244 -303 q 314 -306 297 -326 q 331 -257 331 -285 q 276 -200 331 -218 q 186 -175 231 -187 q 233 -94 210 -135 q 258 -6 256 -53 q 79 114 142 22 q 21 325 21 200 q 86 576 21 457 q 286 719 165 719 q 590 642 460 719 z "},"è":{"ha":628,"x_min":25,"x_max":608,"o":"m 597 393 q 574 313 597 335 q 493 290 550 290 q 310 294 432 290 q 129 297 189 297 q 211 139 128 194 q 392 92 283 92 q 465 110 422 92 q 536 142 501 125 l 576 46 q 486 7 532 26 q 392 -14 435 -14 q 132 67 231 -14 q 25 311 25 154 q 126 589 25 468 q 386 719 233 719 q 557 608 504 719 q 597 393 597 525 m 493 394 q 476 532 485 464 q 386 615 457 615 q 225 552 297 615 q 138 401 153 489 l 150 401 q 292 397 199 401 q 432 393 386 393 q 493 394 465 393 m 608 899 l 558 807 q 450 860 504 833 q 347 921 386 890 q 253 981 318 944 q 160 1039 189 1017 l 225 1121 q 411 1001 297 1063 q 608 899 510 950 z "},"é":{"ha":626,"x_min":25,"x_max":644,"o":"m 597 393 q 574 313 597 335 q 493 290 550 290 q 310 294 432 290 q 129 297 189 297 q 211 139 128 194 q 392 92 283 92 q 465 110 422 92 q 536 142 501 125 l 576 46 q 486 7 532 26 q 392 -14 435 -14 q 132 67 231 -14 q 25 311 25 154 q 126 589 25 468 q 386 719 233 719 q 557 608 504 719 q 597 393 597 525 m 493 394 q 476 532 485 464 q 386 615 457 615 q 225 552 297 615 q 138 401 153 489 l 150 401 q 292 397 199 401 q 432 393 386 393 q 493 394 465 393 m 644 1039 q 551 981 615 1017 q 457 921 488 944 q 354 860 418 890 q 246 807 300 833 l 197 899 q 393 1001 294 950 q 579 1121 507 1063 l 644 1039 z "},"ê":{"ha":643,"x_min":31,"x_max":621,"o":"m 601 393 q 578 313 601 335 q 497 290 554 290 q 315 294 436 290 q 133 297 193 297 q 215 139 132 194 q 396 92 288 92 q 469 110 426 92 q 540 142 506 125 l 581 46 q 490 7 536 26 q 396 -14 439 -14 q 136 67 235 -14 q 29 311 29 154 q 131 589 29 468 q 390 719 238 719 q 561 608 508 719 q 601 393 601 525 m 497 394 q 481 532 489 464 q 390 615 461 615 q 229 552 301 615 q 142 401 157 489 l 154 401 q 297 397 203 401 q 436 393 390 393 q 497 394 469 393 m 619 803 l 532 747 q 439 867 506 789 q 344 992 372 944 q 178 778 289 921 l 94 842 q 221 1006 158 924 q 329 1181 290 1100 q 429 1054 394 1115 q 524 928 457 1006 q 619 803 594 844 z "},"ë":{"ha":619,"x_min":17,"x_max":607,"o":"m 589 393 q 565 313 589 335 q 485 290 542 290 q 302 294 424 290 q 121 297 181 297 q 203 139 119 194 q 383 92 275 92 q 457 110 414 92 q 528 142 493 125 l 568 46 q 478 7 524 26 q 383 -14 426 -14 q 124 67 222 -14 q 17 311 17 154 q 118 589 17 468 q 378 719 225 719 q 549 608 496 719 q 589 393 589 525 m 485 394 q 468 532 476 464 q 378 615 449 615 q 217 552 289 615 q 129 401 144 489 l 142 401 q 284 397 190 401 q 424 393 378 393 q 485 394 457 393 m 607 842 q 406 813 553 836 l 390 957 q 596 986 458 968 l 607 842 m 288 842 q 86 813 233 836 l 71 957 q 276 986 139 968 l 288 842 z "},"ì":{"ha":524,"x_min":56,"x_max":504,"o":"m 299 8 l 194 8 q 196 104 194 39 q 196 201 196 169 q 181 443 196 338 q 172 579 172 489 q 165 714 171 669 l 268 731 q 276 595 275 685 q 282 463 276 506 q 300 192 301 338 l 299 8 m 504 899 l 454 807 q 346 860 400 833 q 243 921 282 890 q 149 981 214 944 q 56 1039 85 1017 l 121 1121 q 307 1001 193 1063 q 504 899 406 950 z "},"í":{"ha":458,"x_min":43,"x_max":490,"o":"m 207 8 l 103 8 q 104 104 103 39 q 104 201 104 169 q 89 443 104 338 q 80 579 81 489 q 74 714 79 669 l 176 731 q 184 595 183 685 q 190 463 185 506 q 208 192 210 338 l 207 8 m 490 1039 q 397 981 461 1017 q 303 921 333 944 q 200 860 264 890 q 92 807 146 833 l 43 899 q 239 1001 140 950 q 425 1121 353 1063 l 490 1039 z "},"î":{"ha":556,"x_min":25,"x_max":550,"o":"m 296 8 l 192 8 q 193 104 192 39 q 193 201 193 169 q 178 443 193 338 q 169 579 169 489 q 163 714 168 669 l 265 731 q 273 595 272 685 q 279 463 274 506 q 297 192 299 338 l 296 8 m 550 803 l 463 747 q 369 867 436 789 q 275 992 303 944 q 108 778 219 921 l 25 842 q 151 1006 89 924 q 260 1181 221 1100 q 360 1054 325 1115 q 454 928 388 1006 q 550 803 525 844 z "},"ï":{"ha":504,"x_min":4,"x_max":540,"o":"m 369 8 l 265 8 q 267 104 265 39 q 267 201 267 169 q 251 443 267 338 q 242 579 243 489 q 236 714 242 669 l 339 731 q 347 595 346 685 q 353 463 347 506 q 371 192 372 338 l 369 8 m 540 842 q 339 813 486 836 l 324 957 q 529 986 392 968 l 540 842 m 221 842 q 19 813 167 836 l 4 957 q 210 986 72 968 l 221 842 z "},"ð":{"ha":692,"x_min":43,"x_max":667,"o":"m 667 610 q 588 610 601 610 q 631 303 631 481 q 590 129 631 215 q 469 11 543 26 l 469 11 q 331 -6 354 -6 q 122 83 204 -6 q 43 296 43 168 q 109 480 43 407 q 286 553 175 553 q 531 450 439 553 q 482 615 518 539 l 442 617 q 265 582 363 619 l 228 679 q 411 721 332 719 q 250 793 342 792 l 250 897 q 538 717 432 897 q 667 714 585 714 l 667 610 m 456 113 q 504 233 504 138 q 444 390 504 331 q 286 449 385 449 q 183 405 221 449 q 146 294 146 361 q 198 157 146 214 q 331 100 250 100 q 399 107 351 100 l 399 108 q 456 114 426 110 l 456 113 z "},"ñ":{"ha":694,"x_min":35,"x_max":663,"o":"m 631 -14 l 526 -14 q 528 63 526 8 q 529 139 529 113 q 364 624 529 624 q 139 475 263 624 q 138 365 139 439 q 136 253 136 290 q 158 11 136 107 l 57 -12 q 35 236 35 79 l 35 710 l 139 710 l 139 628 q 364 728 244 728 q 596 506 533 728 q 632 146 632 378 q 632 67 632 119 q 631 -14 631 11 m 663 1057 q 624 915 663 983 q 510 838 578 838 q 385 883 443 838 q 293 969 339 926 q 190 1017 240 1017 q 147 844 154 974 l 43 851 q 190 1125 58 1125 q 328 1076 264 1125 q 421 989 338 1069 q 510 942 471 942 q 558 1110 560 968 l 663 1110 l 663 1057 z "},"ò":{"ha":647,"x_min":40,"x_max":615,"o":"m 614 322 q 564 93 614 182 q 374 -18 503 -18 q 338 -17 361 -18 q 300 -17 313 -17 q 108 118 186 -17 q 40 357 40 235 q 90 572 40 499 q 276 686 143 651 q 407 711 372 711 q 476 674 454 711 q 614 322 614 581 m 390 606 l 385 606 q 301 585 375 606 q 172 508 204 560 q 144 357 144 464 q 186 193 144 283 q 300 89 236 89 q 337 88 313 89 q 374 86 361 86 q 485 164 450 86 q 511 310 511 222 q 492 460 511 381 q 424 588 467 564 l 390 606 m 597 899 l 547 807 q 439 860 493 833 q 336 921 375 890 q 242 981 307 944 q 149 1039 178 1017 l 214 1121 q 400 1001 286 1063 q 597 899 499 950 z "},"ó":{"ha":642,"x_min":38,"x_max":644,"o":"m 611 322 q 561 93 611 182 q 371 -18 500 -18 q 335 -17 358 -18 q 297 -17 310 -17 q 106 118 183 -17 q 38 357 38 235 q 88 572 38 499 q 274 686 140 651 q 404 711 369 711 q 474 674 451 711 q 611 322 611 581 m 388 606 l 382 606 q 299 585 372 606 q 169 508 201 560 q 142 357 142 464 q 183 193 142 283 q 297 89 233 89 q 334 88 310 89 q 371 86 358 86 q 482 164 447 86 q 508 310 508 222 q 489 460 508 381 q 421 588 464 564 l 388 606 m 644 1039 q 551 981 615 1017 q 457 921 488 944 q 354 860 418 890 q 246 807 300 833 l 197 899 q 393 1001 294 950 q 579 1121 507 1063 l 644 1039 z "},"ô":{"ha":657,"x_min":44,"x_max":618,"o":"m 618 322 q 568 93 618 182 q 378 -18 507 -18 q 342 -17 365 -18 q 304 -17 317 -17 q 113 118 190 -17 q 44 357 44 235 q 94 572 44 499 q 281 686 147 651 q 411 711 376 711 q 481 674 458 711 q 618 322 618 581 m 394 606 l 389 606 q 306 585 379 606 q 176 508 208 560 q 149 357 149 464 q 190 193 149 283 q 304 89 240 89 q 341 88 317 89 q 378 86 365 86 q 489 164 454 86 q 515 310 515 222 q 496 460 515 381 q 428 588 471 564 l 394 606 m 608 803 l 521 747 q 428 867 494 789 q 333 992 361 944 q 167 778 278 921 l 83 842 q 210 1006 147 924 q 318 1181 279 1100 q 418 1054 383 1115 q 513 928 446 1006 q 608 803 583 844 z "},"õ":{"ha":656,"x_min":31,"x_max":658,"o":"m 604 322 q 554 93 604 182 q 364 -18 493 -18 q 328 -17 351 -18 q 290 -17 303 -17 q 99 118 176 -17 q 31 357 31 235 q 81 572 31 499 q 267 686 133 651 q 397 711 363 711 q 467 674 444 711 q 604 322 604 581 m 381 606 l 375 606 q 292 585 365 606 q 163 508 194 560 q 135 357 135 464 q 176 193 135 283 q 290 89 226 89 q 327 88 303 89 q 364 86 351 86 q 475 164 440 86 q 501 310 501 222 q 482 460 501 381 q 414 588 457 564 l 381 606 m 658 1057 q 619 915 658 983 q 506 838 574 838 q 381 883 439 838 q 289 969 335 926 q 186 1017 236 1017 q 143 844 150 974 l 39 851 q 186 1125 54 1125 q 324 1076 260 1125 q 417 989 333 1069 q 506 942 467 942 q 554 1110 556 968 l 658 1110 l 658 1057 z "},"ö":{"ha":650,"x_min":40,"x_max":614,"o":"m 614 322 q 564 93 614 182 q 374 -18 503 -18 q 338 -17 361 -18 q 300 -17 313 -17 q 108 118 186 -17 q 40 357 40 235 q 90 572 40 499 q 276 686 143 651 q 407 711 372 711 q 476 674 454 711 q 614 322 614 581 m 390 606 l 385 606 q 301 585 375 606 q 172 508 204 560 q 144 357 144 464 q 186 193 144 283 q 300 89 236 89 q 337 88 313 89 q 374 86 361 86 q 485 164 450 86 q 511 310 511 222 q 492 460 511 381 q 424 588 467 564 l 390 606 m 604 842 q 403 813 550 836 l 388 957 q 593 986 456 968 l 604 842 m 285 842 q 83 813 231 836 l 68 957 q 274 986 136 968 l 285 842 z "},"÷":{"ha":635,"x_min":7,"x_max":640,"o":"m 403 596 q 250 574 365 593 l 232 675 q 396 700 286 686 l 403 596 m 640 351 q 323 353 535 351 q 7 356 111 356 l 7 460 q 323 458 111 460 q 640 456 535 456 l 640 351 m 340 33 l 208 33 l 208 138 l 340 138 l 340 33 z "},"ø":{"ha":703,"x_min":31,"x_max":667,"o":"m 667 768 q 617 683 650 732 q 560 604 567 614 q 629 333 629 504 q 574 94 629 186 q 369 -18 506 -18 q 217 11 265 -18 q 89 -112 171 -57 l 31 -26 q 144 79 103 22 q 51 357 51 206 q 100 572 51 499 q 288 686 154 651 q 410 711 385 711 q 488 674 463 711 q 571 811 525 707 l 667 768 m 493 481 q 393 285 443 382 q 279 97 335 174 q 365 86 301 86 q 490 149 454 86 q 519 294 519 197 q 493 481 519 393 m 426 592 l 401 606 l 396 606 q 314 586 388 606 q 183 510 217 561 q 156 357 156 465 q 207 175 156 265 q 315 383 244 238 q 426 592 382 521 z "},"ù":{"ha":708,"x_min":49,"x_max":663,"o":"m 657 718 q 660 594 657 678 q 663 469 663 511 q 628 210 663 308 q 468 8 583 83 q 394 -22 422 -22 q 94 258 174 -22 q 49 718 49 419 l 153 718 q 182 338 153 472 q 394 83 238 83 q 522 222 488 138 q 553 411 546 283 q 553 718 553 411 l 657 718 m 603 899 l 553 807 q 444 860 499 833 q 342 921 381 890 q 248 981 313 944 q 154 1039 183 1017 l 219 1121 q 406 1001 292 1063 q 603 899 504 950 z "},"ú":{"ha":701,"x_min":43,"x_max":657,"o":"m 651 718 q 654 594 651 678 q 657 469 657 511 q 622 210 657 308 q 463 8 578 83 q 389 -22 417 -22 q 89 258 168 -22 q 43 718 43 419 l 147 718 q 176 338 147 472 q 389 83 232 83 q 517 222 482 138 q 547 411 540 283 q 547 718 547 411 l 651 718 m 633 1039 q 540 981 604 1017 q 446 921 476 944 q 343 860 407 890 q 235 807 289 833 l 186 899 q 382 1001 283 950 q 568 1121 496 1063 l 633 1039 z "},"û":{"ha":731,"x_min":57,"x_max":671,"o":"m 664 718 q 667 594 664 678 q 669 469 669 511 q 635 210 669 308 q 475 8 590 83 q 401 -22 429 -22 q 101 258 181 -22 q 56 718 56 419 l 160 718 q 189 338 160 472 q 401 83 244 83 q 529 222 494 138 q 560 411 553 283 q 560 718 560 411 l 664 718 m 617 803 l 529 747 q 436 867 503 789 q 342 992 369 944 q 175 778 286 921 l 92 842 q 218 1006 156 924 q 326 1181 288 1100 q 426 1054 392 1115 q 521 928 454 1006 q 617 803 592 844 z "},"ü":{"ha":717,"x_min":56,"x_max":669,"o":"m 663 718 q 665 594 663 678 q 668 469 668 511 q 633 210 668 308 q 474 8 589 83 q 400 -22 428 -22 q 100 258 179 -22 q 54 718 54 419 l 158 718 q 188 338 158 472 q 400 83 243 83 q 528 222 493 138 q 558 411 551 283 q 558 718 558 411 l 663 718 m 601 842 q 400 813 547 836 l 385 957 q 590 986 453 968 l 601 842 m 282 842 q 81 813 228 836 l 65 957 q 271 986 133 968 l 282 842 z "},"ý":{"ha":697,"x_min":32,"x_max":688,"o":"m 669 710 q 618 542 661 656 q 424 31 556 371 l 429 24 l 419 18 q 336 -189 347 -162 q 244 -393 288 -307 l 151 -347 q 304 28 217 -215 q 151 393 229 154 q 92 540 135 443 q 32 689 49 638 l 131 721 q 191 571 147 668 q 251 424 235 474 q 296 289 288 314 q 350 158 322 214 q 471 449 353 165 q 567 726 556 651 l 669 710 m 688 1039 q 594 981 658 1017 q 500 921 531 944 q 397 860 461 890 q 289 807 343 833 l 240 899 q 436 1001 338 950 q 622 1121 550 1063 l 688 1039 z "},"þ":{"ha":699,"x_min":39,"x_max":678,"o":"m 678 286 q 546 60 678 139 q 279 -6 436 -6 q 161 31 221 -6 l 158 -401 l 54 -401 q 57 31 54 -257 q 60 463 60 318 q 39 1032 60 936 l 140 1057 q 144 833 143 946 q 157 631 149 660 q 311 679 247 679 q 472 632 372 679 q 678 286 678 536 m 574 286 q 524 463 574 397 q 368 564 475 528 q 313 574 339 574 q 168 511 243 574 l 168 485 q 165 321 168 425 q 163 157 163 204 q 279 100 231 100 q 469 138 390 100 q 574 286 574 188 z "},"ÿ":{"ha":694,"x_min":32,"x_max":669,"o":"m 669 710 q 618 542 661 656 q 424 31 556 371 l 429 24 l 419 18 q 336 -189 347 -162 q 244 -393 288 -307 l 151 -347 q 304 28 217 -215 q 151 393 229 154 q 92 540 135 443 q 32 689 49 638 l 131 721 q 191 571 147 668 q 251 424 235 474 q 296 289 288 314 q 350 158 322 214 q 471 449 353 165 q 567 726 556 651 l 669 710 m 617 842 q 415 813 563 836 l 400 957 q 606 986 468 968 l 617 842 m 297 842 q 96 813 243 836 l 81 957 q 286 986 149 968 l 297 842 z "},"ı":{"ha":251,"x_min":57,"x_max":193,"o":"m 190 8 l 86 8 q 88 104 86 39 q 88 201 88 169 q 72 443 88 338 q 63 579 64 489 q 57 714 63 669 l 160 731 q 167 595 167 685 q 174 463 168 506 q 192 192 193 338 l 190 8 z "},"Ł":{"ha":724,"x_min":-4,"x_max":751,"o":"m 751 0 q 649 -10 732 -1 q 544 -15 585 -15 q 499 -12 519 -15 l 499 -12 q 329 -10 442 -12 q 161 -8 217 -8 q 163 138 161 40 q 163 283 163 235 q 161 399 163 346 q 44 344 122 382 l -4 436 q 156 518 69 476 q 139 740 139 711 q 142 849 139 776 q 144 958 144 922 l 249 958 q 247 860 249 925 q 246 763 246 796 q 256 569 246 651 q 378 658 303 597 l 443 576 q 354 521 417 554 q 264 464 292 488 q 265 96 268 385 q 413 93 339 93 q 744 104 572 93 l 751 0 z "},"ł":{"ha":564,"x_min":13,"x_max":542,"o":"m 542 -3 l 100 -8 q 13 17 97 -8 l 40 117 q 181 97 113 97 l 201 97 l 200 147 q 210 397 200 265 q 94 344 171 381 l 44 436 q 218 524 113 472 q 226 876 226 663 q 46 854 135 868 l 29 957 q 514 990 228 990 l 514 886 q 331 883 393 886 q 325 582 331 697 q 428 658 361 604 l 493 576 q 406 522 467 554 q 319 469 346 490 q 304 135 304 232 l 306 99 l 540 101 l 542 -3 z "},"Œ":{"ha":1143,"x_min":-21,"x_max":1157,"o":"m 1157 885 q 661 861 992 881 q 658 700 661 814 q 657 539 657 594 q 717 538 686 538 q 1036 585 882 538 l 1067 485 q 661 435 890 431 q 657 375 661 415 q 653 315 653 335 l 653 103 l 719 101 q 1050 144 921 100 l 1083 46 q 871 4 989 13 q 654 0 813 0 q 551 -10 581 0 q 549 71 546 22 q 307 -22 461 -22 q 74 89 172 -22 q -21 332 -21 194 q 79 671 -21 500 q 335 908 185 850 q 440 946 371 917 q 504 914 472 929 q 557 868 540 893 l 557 950 l 558 950 l 558 954 q 854 978 675 971 q 1150 989 1129 988 l 1157 885 m 424 833 q 308 776 383 817 q 148 578 213 706 q 83 332 83 450 q 147 163 83 238 q 307 83 215 83 q 556 429 556 83 q 526 660 556 532 q 424 833 486 831 z "},"œ":{"ha":1124,"x_min":43,"x_max":1088,"o":"m 1088 390 q 1063 312 1088 333 q 983 290 1039 290 q 801 294 922 290 q 619 297 679 297 q 703 139 618 194 q 882 92 774 92 q 956 110 913 92 q 1026 142 992 125 l 1067 46 q 978 7 1022 26 q 882 -14 925 -14 q 576 114 682 -14 q 375 -18 513 -18 q 339 -17 364 -18 q 303 -17 315 -17 q 111 118 189 -17 q 43 357 43 235 q 92 572 43 499 q 279 686 146 651 q 411 710 376 711 l 426 710 q 517 642 458 708 q 583 540 569 581 q 876 719 688 719 q 1047 607 994 719 q 1088 390 1088 524 m 983 394 q 967 532 975 464 q 876 615 947 615 q 715 552 788 615 q 628 401 643 489 l 640 401 q 783 397 689 401 q 924 393 876 393 q 983 394 956 393 m 393 606 l 388 606 q 303 585 378 606 q 175 508 207 560 q 147 357 147 464 q 189 193 147 283 q 303 89 239 89 q 340 88 315 89 q 376 86 364 86 q 488 164 451 86 q 513 310 513 222 q 494 460 513 381 q 426 588 469 564 l 393 606 z "},"Š":{"ha":557,"x_min":-42,"x_max":597,"o":"m 589 922 l 544 828 q 426 867 483 858 q 301 874 389 874 q 154 832 233 874 q 63 724 63 785 q 165 599 63 669 q 315 499 240 549 q 507 167 507 324 q 403 28 507 81 q 222 -17 318 -17 q -19 88 99 -17 l 50 167 q 222 89 138 89 q 326 108 265 89 q 403 167 403 133 q 322 333 403 233 q 182 463 249 426 q 29 563 71 525 q -42 724 -42 631 q 79 910 -42 833 q 301 978 185 978 q 449 969 400 978 q 589 922 514 958 m 597 1365 q 269 992 447 1139 q 131 1193 200 1093 q 17 1410 51 1314 l 115 1444 q 192 1294 139 1376 q 286 1156 239 1225 q 401 1286 314 1190 q 510 1422 474 1367 l 597 1365 z "},"š":{"ha":610,"x_min":3,"x_max":597,"o":"m 578 197 q 509 50 578 114 q 357 -14 440 -14 q 4 153 181 -14 l 75 229 q 357 92 222 92 q 435 124 397 92 q 474 197 474 157 q 436 307 474 275 q 346 338 410 332 q 232 350 289 343 q 40 536 40 386 q 267 725 40 725 q 433 706 378 725 q 572 610 506 682 l 496 539 q 393 610 444 596 q 267 621 358 621 q 182 607 207 621 q 144 536 144 589 q 257 451 144 471 q 465 403 431 421 q 578 197 578 349 m 597 1138 q 269 764 447 911 q 131 965 200 865 q 17 1182 51 1086 l 115 1217 q 192 1067 139 1149 q 286 928 239 997 q 401 1058 314 963 q 510 1194 474 1139 l 597 1138 z "},"Ÿ":{"ha":632,"x_min":6,"x_max":618,"o":"m 619 963 q 524 703 599 847 q 393 456 458 579 q 335 344 358 382 l 335 21 l 231 21 l 231 378 l 238 389 q 111 572 200 433 q 25 754 47 672 q 7 954 7 826 l 111 954 q 157 704 111 818 q 292 486 199 601 q 421 728 356 607 q 517 982 497 872 l 619 963 m 585 1069 q 383 1040 531 1064 l 368 1185 q 574 1214 436 1196 l 585 1069 m 265 1069 q 64 1040 211 1064 l 49 1185 q 254 1214 117 1196 l 265 1069 z "},"Ž":{"ha":629,"x_min":-6,"x_max":626,"o":"m 622 938 q 557 775 593 832 q 454 638 551 765 q 361 506 449 631 q 260 379 306 426 q 158 257 188 306 q 107 107 121 194 q 256 101 174 101 q 438 106 317 101 q 618 110 558 110 l 618 6 q 446 3 561 6 q 274 1 331 1 q -4 13 114 1 q 42 253 1 161 q 186 454 82 346 q 283 575 229 497 q 372 701 361 686 q 472 832 407 743 q 263 815 385 815 q 129 819 218 815 q -3 822 40 822 l -3 926 q 131 924 42 926 q 264 922 219 922 q 391 930 307 922 q 518 938 475 938 l 622 938 m 626 1365 q 299 992 476 1139 q 160 1193 229 1093 q 46 1410 81 1314 l 144 1444 q 221 1294 168 1376 q 315 1156 268 1225 q 431 1286 343 1190 q 539 1422 503 1367 l 626 1365 z "},"ž":{"ha":672,"x_min":18,"x_max":669,"o":"m 669 29 q 313 18 406 29 q 221 4 308 17 q 128 -4 167 -4 l 18 -4 q 149 178 90 90 q 324 394 197 250 q 493 614 442 531 q 410 613 450 613 q 359 617 393 613 q 308 622 325 622 l 57 622 l 57 726 q 224 724 113 726 q 392 721 336 721 q 649 735 529 721 q 536 500 614 611 q 385 313 497 442 q 231 113 282 194 q 590 133 361 133 l 669 133 l 669 29 m 633 1138 q 306 764 483 911 q 167 965 236 865 q 53 1182 88 1086 l 151 1217 q 228 1067 175 1149 q 322 928 275 997 q 438 1058 350 963 q 546 1194 510 1139 l 633 1138 z "},"ƒ":{"ha":738,"x_min":-12,"x_max":790,"o":"m 790 914 l 671 914 q 611 914 629 914 q 417 608 447 907 l 572 610 l 572 506 q 407 504 454 506 q 376 200 392 282 q 275 -49 347 46 q 21 -218 189 -161 l -12 -119 q 206 28 138 -68 q 278 239 261 106 q 293 501 285 371 l 274 501 q 107 514 193 500 l 122 617 q 274 606 197 604 l 304 606 q 401 894 331 797 q 665 1018 490 1019 l 790 1018 l 790 914 z "},"ˆ":{"ha":468,"x_min":-49,"x_max":476,"o":"m 476 1031 l 389 975 q 296 1094 363 1017 q 201 1219 229 1172 q 35 1006 146 1149 l -49 1069 q 78 1233 15 1151 q 186 1408 147 1328 q 286 1282 251 1343 q 381 1156 314 1233 q 476 1031 451 1072 z "},"ˇ":{"ha":533,"x_min":-10,"x_max":571,"o":"m 571 1365 q 243 992 421 1139 q 104 1193 174 1093 q -10 1410 25 1314 l 89 1444 q 165 1294 113 1376 q 260 1156 213 1225 q 375 1286 288 1190 q 483 1422 447 1367 l 571 1365 z "},"¯":{"ha":431,"x_min":-4,"x_max":461,"o":"m 461 1042 q 229 1039 385 1042 q -4 1039 74 1039 l -4 1143 q 229 1143 74 1143 q 461 1146 385 1146 l 461 1042 z "},"˘":{"ha":503,"x_min":-3,"x_max":539,"o":"m 539 1243 q 482 1093 511 1168 q 413 1019 458 1038 q 249 1001 367 1001 q 46 1067 100 1001 q -3 1278 -3 1125 l 101 1278 q 119 1142 101 1168 q 249 1106 144 1106 q 365 1117 336 1106 q 406 1167 393 1128 q 442 1282 424 1224 l 539 1243 z "},"˙":{"ha":185,"x_min":18,"x_max":199,"o":"m 199 1051 q 18 1032 104 1031 l 18 1150 q 21 1171 18 1156 q 22 1196 24 1186 l 186 1203 q 199 1051 186 1119 z "},"˚":{"ha":339,"x_min":-131,"x_max":363,"o":"m 363 1206 q 303 1025 363 1093 q 129 953 240 953 q -44 1007 33 953 q -131 1160 -131 1068 q -76 1324 -131 1251 q 71 1403 -18 1403 q 85 1403 85 1403 q 114 1408 92 1403 q 143 1414 131 1414 q 300 1356 238 1414 q 363 1206 363 1299 m 258 1206 q 156 1306 258 1306 q 114 1301 142 1306 q 71 1297 86 1297 q -1 1249 26 1297 q -26 1160 -26 1207 q 33 1081 -26 1107 q 139 1061 78 1061 q 258 1206 258 1061 z "},"˛":{"ha":392,"x_min":43,"x_max":318,"o":"m 318 0 q 206 -89 222 -72 q 147 -212 147 -147 q 179 -262 147 -254 q 244 -265 189 -265 l 244 -369 q 103 -339 150 -369 q 43 -212 43 -303 q 81 -82 43 -124 q 189 0 92 -68 l 318 0 z "},"˜":{"ha":532,"x_min":-50,"x_max":569,"o":"m 569 1285 q 531 1143 569 1211 q 417 1065 485 1065 q 292 1111 350 1065 q 200 1197 246 1154 q 97 1244 147 1244 q 54 1072 61 1201 l -50 1079 q 97 1353 -35 1353 q 235 1304 171 1353 q 328 1217 244 1297 q 417 1169 378 1169 q 465 1338 467 1196 l 569 1338 l 569 1285 z "},"˝":{"ha":492,"x_min":-18,"x_max":528,"o":"m 528 1267 q 410 1149 488 1228 q 364 1088 397 1136 q 310 1035 340 1051 l 238 1082 q 338 1225 326 1210 q 463 1349 389 1290 l 528 1267 m 278 1267 q 160 1149 238 1228 q 114 1088 147 1136 q 60 1035 90 1051 l -18 1094 q 213 1349 108 1265 l 278 1267 z "},"µ":{"ha":765,"x_min":47,"x_max":708,"o":"m 418 -44 q 153 125 246 -44 q 151 -69 150 49 q 153 -265 153 -253 l 49 -265 q 47 -131 49 -221 q 47 4 47 -42 q 63 367 47 150 q 89 728 75 547 l 192 731 q 197 467 196 700 q 218 228 199 275 q 293 113 246 158 q 418 61 350 61 q 565 147 517 61 q 606 321 606 217 q 594 513 606 385 q 582 704 582 640 l 686 704 q 697 510 686 639 q 708 315 708 381 q 701 208 708 253 q 603 31 685 106 q 418 -44 521 -44 z "},"–":{"ha":914,"x_min":38,"x_max":851,"o":"m 851 297 q 646 301 785 297 q 438 304 507 304 q 75 269 175 304 l 38 367 q 414 411 147 411 q 634 406 488 411 q 851 401 781 401 l 851 297 z "},"—":{"ha":1026,"x_min":29,"x_max":968,"o":"m 968 297 q 727 301 890 297 q 483 306 564 306 q 65 269 169 306 l 29 367 q 458 411 138 411 q 715 406 544 411 q 968 401 885 401 l 968 297 z "},"‘":{"ha":378,"x_min":50,"x_max":339,"o":"m 339 921 q 175 782 203 840 q 156 568 156 740 l 51 568 l 50 682 q 115 882 50 804 q 286 1010 160 936 l 339 921 z "},"’":{"ha":342,"x_min":33,"x_max":303,"o":"m 303 1010 l 303 946 q 267 715 303 782 q 97 542 232 647 l 33 624 q 158 740 125 697 q 196 843 190 782 q 199 1010 199 863 l 303 1010 z "},"‚":{"ha":446,"x_min":46,"x_max":401,"o":"m 401 106 l 376 60 q 331 -61 358 24 q 283 -171 307 -136 q 181 -250 247 -224 q 104 -290 142 -264 l 46 -204 q 147 -151 89 -175 q 201 -111 183 -136 q 229 -49 215 -93 q 308 154 271 82 l 401 106 z "},"“":{"ha":619,"x_min":29,"x_max":581,"o":"m 581 906 q 428 763 472 843 q 385 556 385 683 l 281 556 q 335 824 281 722 q 540 1001 396 940 l 581 906 m 278 933 q 171 815 197 857 q 140 713 144 772 q 133 557 136 635 l 29 564 q 38 746 33 654 q 76 872 44 821 q 210 1003 113 929 l 278 933 z "},"”":{"ha":601,"x_min":38,"x_max":564,"o":"m 564 1004 q 524 736 549 797 q 329 551 479 628 l 304 651 q 431 803 393 674 q 460 1013 450 868 l 564 1004 m 311 999 q 272 740 311 826 q 86 561 224 632 l 38 653 q 182 794 149 710 q 207 999 207 854 l 311 999 z "},"„":{"ha":668,"x_min":67,"x_max":606,"o":"m 606 156 q 547 -156 606 -31 q 472 -246 518 -217 q 363 -290 447 -261 l 314 -206 q 394 -175 382 -183 q 451 -112 431 -156 q 501 156 501 -12 l 606 156 m 335 142 q 344 17 344 71 q 283 -187 344 -115 q 92 -287 222 -260 l 67 -186 q 198 -119 157 -168 q 239 21 239 -69 q 231 129 239 64 l 335 142 z "},"†":{"ha":539,"x_min":22,"x_max":522,"o":"m 522 717 q 314 699 436 693 q 319 282 319 424 l 215 282 q 210 694 215 426 q 22 686 108 685 l 22 790 q 207 799 101 790 q 207 969 207 858 l 311 969 l 311 801 q 368 800 346 800 q 496 817 432 800 l 522 717 z "},"‡":{"ha":568,"x_min":32,"x_max":535,"o":"m 535 754 q 444 732 494 739 q 346 721 393 725 q 349 529 350 644 q 524 528 388 526 l 524 424 q 347 425 390 424 q 347 256 347 351 l 243 256 q 244 433 243 353 q 47 436 239 436 l 47 540 l 244 539 l 244 565 q 243 710 244 650 q 32 704 164 703 l 32 808 q 235 814 160 808 q 232 924 232 854 l 232 950 l 336 950 q 338 824 336 857 q 496 865 422 836 l 535 754 z "},"•":{"ha":689,"x_min":43,"x_max":642,"o":"m 642 360 q 564 189 642 249 q 381 135 494 135 q 165 189 267 135 q 43 357 43 254 q 135 606 43 497 q 365 715 228 715 q 569 594 488 715 q 642 360 642 488 z "},"…":{"ha":1214,"x_min":44,"x_max":1150,"o":"m 1150 14 q 950 -15 1096 8 l 933 129 q 1139 158 1001 140 l 1150 14 m 706 14 q 506 -15 651 8 l 489 129 q 694 158 557 140 l 706 14 m 261 14 q 61 -15 207 8 l 44 129 q 250 158 113 140 l 261 14 z "},"‰":{"ha":1447,"x_min":19,"x_max":1465,"o":"m 1465 351 q 1250 38 1465 38 q 1108 88 1158 38 q 1058 231 1058 139 q 1110 420 1058 332 q 1251 546 1161 508 l 1257 563 q 1465 351 1465 494 m 996 356 q 939 149 996 236 q 760 49 872 49 q 592 204 592 49 q 667 414 592 310 q 846 539 746 526 l 857 563 q 964 485 936 525 q 996 356 996 439 m 440 718 q 394 550 440 622 q 253 465 342 465 q 88 525 156 465 q 19 681 19 585 q 88 848 19 757 q 231 949 157 939 l 282 956 l 289 899 q 408 850 372 899 q 440 718 440 808 m 806 935 l 797 885 q 733 729 783 811 q 643 589 688 658 q 297 82 481 299 q 213 -43 250 25 l 122 7 q 204 125 151 60 q 296 236 250 181 q 517 569 367 325 q 694 901 682 838 l 703 953 l 806 935 m 1361 351 q 1279 444 1361 410 q 1192 346 1222 421 q 1165 213 1165 283 q 1188 153 1165 167 q 1250 142 1204 142 q 1347 217 1322 142 q 1361 351 1361 260 m 871 436 q 752 353 811 432 q 693 213 693 275 q 760 153 693 153 q 861 225 824 153 q 893 357 893 286 q 871 436 893 415 m 333 726 q 322 793 333 772 l 324 794 l 272 794 l 272 850 l 243 846 q 167 778 211 842 q 124 681 124 715 q 159 601 124 636 q 239 567 194 567 q 333 726 333 567 z "},"‹":{"ha":415,"x_min":33,"x_max":371,"o":"m 371 713 q 164 413 281 553 q 138 379 154 401 q 214 250 154 329 q 301 124 285 156 q 354 60 317 93 l 283 -17 q 142 181 244 19 q 33 383 33 349 q 74 469 33 419 q 139 544 107 507 q 281 764 200 622 l 371 713 z "},"›":{"ha":396,"x_min":17,"x_max":353,"o":"m 353 407 q 321 331 353 369 q 264 267 293 299 q 110 -7 218 208 l 17 39 q 244 401 122 249 q 151 502 197 451 q 85 599 106 553 q 56 738 60 656 l 160 742 q 214 588 164 657 q 304 489 231 564 q 353 407 353 442 z "},"⁄":{"ha":690,"x_min":15,"x_max":669,"o":"m 669 949 l 665 897 q 601 753 660 828 q 501 625 551 689 q 371 397 458 560 q 238 169 292 247 q 108 -44 156 53 l 15 1 q 135 197 49 71 q 254 390 221 324 q 506 801 364 608 q 552 875 542 849 q 567 957 563 901 l 669 949 z "},"™":{"ha":1201,"x_min":26,"x_max":1175,"o":"m 1175 425 l 1076 393 q 983 731 1046 506 q 789 360 903 511 q 614 736 735 503 q 557 432 557 556 l 453 432 q 488 646 453 524 q 549 856 518 750 l 582 990 q 813 581 663 856 q 996 951 869 706 q 1093 690 1043 844 q 1175 425 1135 558 m 465 833 q 321 831 374 833 l 321 769 q 294 415 321 551 l 192 435 q 217 763 217 564 l 217 829 q 26 847 124 829 l 47 950 q 186 935 110 938 q 325 933 239 932 q 465 938 439 938 l 465 833 z "},"":{"ha":740,"x_min":17,"x_max":701,"o":"m 700 8 l 596 8 q 597 107 596 40 q 597 207 597 174 q 585 394 597 271 q 572 578 574 517 q 290 569 446 578 l 290 525 q 296 263 290 435 q 301 1 301 85 l 197 1 q 192 285 197 86 q 188 568 186 467 q 24 567 56 569 l 17 671 q 192 672 69 675 q 451 1036 218 1036 q 559 1033 488 1036 q 665 1031 631 1031 l 665 926 q 580 928 638 926 q 494 931 522 931 q 335 858 378 931 q 296 675 307 811 q 567 682 442 682 l 565 686 l 669 703 q 679 565 676 654 q 689 426 683 468 q 701 197 701 326 q 700 103 701 165 q 700 8 700 39 z "},"":{"ha":743,"x_min":14,"x_max":706,"o":"m 706 1028 q 683 886 703 985 q 667 749 667 796 l 667 7 l 563 7 l 563 579 q 288 569 454 579 l 288 525 q 293 263 288 435 q 299 1 299 85 l 194 1 q 189 285 194 85 q 185 568 183 467 q 21 567 54 569 l 14 671 q 189 672 65 675 q 449 1036 215 1036 q 601 1031 447 1036 l 601 1035 l 706 1028 m 590 926 q 449 932 488 932 q 293 675 314 932 q 563 683 451 682 l 563 697 q 572 813 561 744 q 590 926 581 869 z "},"€":{"ha":647,"x_min":-28,"x_max":678,"o":"m 678 99 q 458 -11 579 -11 q 235 93 336 -11 q 110 314 143 186 q -28 311 61 310 l -28 415 q 100 418 57 415 q 104 488 101 453 q 50 475 79 483 l 24 576 q 124 599 57 585 q 254 851 167 769 q 519 940 351 940 l 606 940 l 606 836 q 365 806 424 836 q 233 606 285 764 l 269 606 q 506 624 411 606 l 525 521 q 368 506 461 508 q 211 501 289 503 q 204 426 206 465 q 425 439 317 439 l 425 335 q 215 324 318 335 q 306 171 247 236 q 457 92 376 92 q 600 168 532 92 l 678 99 z "}}}
